<mxfile host="app.diagrams.net" modified="2020-11-27T10:46:14.404Z" agent="5.0 (Windows NT 10.0; Win64; x64) AppleWebKit/537.36 (KHTML, like Gecko) Chrome/83.0.4103.116 Safari/537.36" etag="dzt5tYl4sYElFM04LUTt" version="13.9.9" type="github">
  <diagram id="yfQwNUaOnHE2strfXZU_" name="Page-1">
    <mxGraphModel dx="1095" dy="1781" grid="1" gridSize="10" guides="1" tooltips="1" connect="1" arrows="1" fold="1" page="1" pageScale="1" pageWidth="827" pageHeight="1169" math="0" shadow="0">
      <root>
        <mxCell id="0" />
        <mxCell id="1" parent="0" />
        <mxCell id="fQTumMXNS3Mo2PDMPsu8-28" value="Server" style="shape=table;startSize=30;container=1;collapsible=1;childLayout=tableLayout;fixedRows=1;rowLines=0;fontStyle=1;align=center;resizeLast=1;" vertex="1" parent="1">
          <mxGeometry x="89" y="-430" width="180" height="340" as="geometry" />
        </mxCell>
        <mxCell id="fQTumMXNS3Mo2PDMPsu8-29" value="" style="shape=partialRectangle;collapsible=0;dropTarget=0;pointerEvents=0;fillColor=none;top=0;left=0;bottom=1;right=0;points=[[0,0.5],[1,0.5]];portConstraint=eastwest;" vertex="1" parent="fQTumMXNS3Mo2PDMPsu8-28">
          <mxGeometry y="30" width="180" height="30" as="geometry" />
        </mxCell>
        <mxCell id="fQTumMXNS3Mo2PDMPsu8-30" value="PK" style="shape=partialRectangle;connectable=0;fillColor=none;top=0;left=0;bottom=0;right=0;fontStyle=1;overflow=hidden;" vertex="1" parent="fQTumMXNS3Mo2PDMPsu8-29">
          <mxGeometry width="30" height="30" as="geometry" />
        </mxCell>
        <mxCell id="fQTumMXNS3Mo2PDMPsu8-31" value="id" style="shape=partialRectangle;connectable=0;fillColor=none;top=0;left=0;bottom=0;right=0;align=left;spacingLeft=6;fontStyle=5;overflow=hidden;" vertex="1" parent="fQTumMXNS3Mo2PDMPsu8-29">
          <mxGeometry x="30" width="150" height="30" as="geometry" />
        </mxCell>
        <mxCell id="fQTumMXNS3Mo2PDMPsu8-32" value="" style="shape=partialRectangle;collapsible=0;dropTarget=0;pointerEvents=0;fillColor=none;top=0;left=0;bottom=0;right=0;points=[[0,0.5],[1,0.5]];portConstraint=eastwest;" vertex="1" parent="fQTumMXNS3Mo2PDMPsu8-28">
          <mxGeometry y="60" width="180" height="30" as="geometry" />
        </mxCell>
        <mxCell id="fQTumMXNS3Mo2PDMPsu8-33" value="" style="shape=partialRectangle;connectable=0;fillColor=none;top=0;left=0;bottom=0;right=0;editable=1;overflow=hidden;" vertex="1" parent="fQTumMXNS3Mo2PDMPsu8-32">
          <mxGeometry width="30" height="30" as="geometry" />
        </mxCell>
        <mxCell id="fQTumMXNS3Mo2PDMPsu8-34" value="sn - 序列号" style="shape=partialRectangle;connectable=0;fillColor=none;top=0;left=0;bottom=0;right=0;align=left;spacingLeft=6;overflow=hidden;" vertex="1" parent="fQTumMXNS3Mo2PDMPsu8-32">
          <mxGeometry x="30" width="150" height="30" as="geometry" />
        </mxCell>
        <mxCell id="fQTumMXNS3Mo2PDMPsu8-35" value="" style="shape=partialRectangle;collapsible=0;dropTarget=0;pointerEvents=0;fillColor=none;top=0;left=0;bottom=0;right=0;points=[[0,0.5],[1,0.5]];portConstraint=eastwest;" vertex="1" parent="fQTumMXNS3Mo2PDMPsu8-28">
          <mxGeometry y="90" width="180" height="30" as="geometry" />
        </mxCell>
        <mxCell id="fQTumMXNS3Mo2PDMPsu8-36" value="" style="shape=partialRectangle;connectable=0;fillColor=none;top=0;left=0;bottom=0;right=0;editable=1;overflow=hidden;" vertex="1" parent="fQTumMXNS3Mo2PDMPsu8-35">
          <mxGeometry width="30" height="30" as="geometry" />
        </mxCell>
        <mxCell id="fQTumMXNS3Mo2PDMPsu8-37" value="asset_no - 资产编号" style="shape=partialRectangle;connectable=0;fillColor=none;top=0;left=0;bottom=0;right=0;align=left;spacingLeft=6;overflow=hidden;" vertex="1" parent="fQTumMXNS3Mo2PDMPsu8-35">
          <mxGeometry x="30" width="150" height="30" as="geometry" />
        </mxCell>
        <mxCell id="fQTumMXNS3Mo2PDMPsu8-38" value="" style="shape=partialRectangle;collapsible=0;dropTarget=0;pointerEvents=0;fillColor=none;top=0;left=0;bottom=0;right=0;points=[[0,0.5],[1,0.5]];portConstraint=eastwest;" vertex="1" parent="fQTumMXNS3Mo2PDMPsu8-28">
          <mxGeometry y="120" width="180" height="30" as="geometry" />
        </mxCell>
        <mxCell id="fQTumMXNS3Mo2PDMPsu8-39" value="" style="shape=partialRectangle;connectable=0;fillColor=none;top=0;left=0;bottom=0;right=0;editable=1;overflow=hidden;" vertex="1" parent="fQTumMXNS3Mo2PDMPsu8-38">
          <mxGeometry width="30" height="30" as="geometry" />
        </mxCell>
        <mxCell id="fQTumMXNS3Mo2PDMPsu8-40" value="ip - IP地址" style="shape=partialRectangle;connectable=0;fillColor=none;top=0;left=0;bottom=0;right=0;align=left;spacingLeft=6;overflow=hidden;" vertex="1" parent="fQTumMXNS3Mo2PDMPsu8-38">
          <mxGeometry x="30" width="150" height="30" as="geometry" />
        </mxCell>
        <mxCell id="fQTumMXNS3Mo2PDMPsu8-41" value="" style="shape=partialRectangle;collapsible=0;dropTarget=0;pointerEvents=0;fillColor=none;top=0;left=0;bottom=0;right=0;points=[[0,0.5],[1,0.5]];portConstraint=eastwest;" vertex="1" parent="fQTumMXNS3Mo2PDMPsu8-28">
          <mxGeometry y="150" width="180" height="30" as="geometry" />
        </mxCell>
        <mxCell id="fQTumMXNS3Mo2PDMPsu8-42" value="" style="shape=partialRectangle;connectable=0;fillColor=none;top=0;left=0;bottom=0;right=0;editable=1;overflow=hidden;" vertex="1" parent="fQTumMXNS3Mo2PDMPsu8-41">
          <mxGeometry width="30" height="30" as="geometry" />
        </mxCell>
        <mxCell id="fQTumMXNS3Mo2PDMPsu8-43" value="ip_segment - IP网段" style="shape=partialRectangle;connectable=0;fillColor=none;top=0;left=0;bottom=0;right=0;align=left;spacingLeft=6;overflow=hidden;" vertex="1" parent="fQTumMXNS3Mo2PDMPsu8-41">
          <mxGeometry x="30" width="150" height="30" as="geometry" />
        </mxCell>
        <mxCell id="fQTumMXNS3Mo2PDMPsu8-44" value="" style="shape=partialRectangle;collapsible=0;dropTarget=0;pointerEvents=0;fillColor=none;top=0;left=0;bottom=0;right=0;points=[[0,0.5],[1,0.5]];portConstraint=eastwest;" vertex="1" parent="fQTumMXNS3Mo2PDMPsu8-28">
          <mxGeometry y="180" width="180" height="30" as="geometry" />
        </mxCell>
        <mxCell id="fQTumMXNS3Mo2PDMPsu8-45" value="" style="shape=partialRectangle;connectable=0;fillColor=none;top=0;left=0;bottom=0;right=0;editable=1;overflow=hidden;" vertex="1" parent="fQTumMXNS3Mo2PDMPsu8-44">
          <mxGeometry width="30" height="30" as="geometry" />
        </mxCell>
        <mxCell id="fQTumMXNS3Mo2PDMPsu8-46" value="ipmi - IPMI" style="shape=partialRectangle;connectable=0;fillColor=none;top=0;left=0;bottom=0;right=0;align=left;spacingLeft=6;overflow=hidden;" vertex="1" parent="fQTumMXNS3Mo2PDMPsu8-44">
          <mxGeometry x="30" width="150" height="30" as="geometry" />
        </mxCell>
        <mxCell id="fQTumMXNS3Mo2PDMPsu8-47" value="" style="shape=partialRectangle;collapsible=0;dropTarget=0;pointerEvents=0;fillColor=none;top=0;left=0;bottom=0;right=0;points=[[0,0.5],[1,0.5]];portConstraint=eastwest;" vertex="1" parent="fQTumMXNS3Mo2PDMPsu8-28">
          <mxGeometry y="210" width="180" height="30" as="geometry" />
        </mxCell>
        <mxCell id="fQTumMXNS3Mo2PDMPsu8-48" value="" style="shape=partialRectangle;connectable=0;fillColor=none;top=0;left=0;bottom=0;right=0;editable=1;overflow=hidden;" vertex="1" parent="fQTumMXNS3Mo2PDMPsu8-47">
          <mxGeometry width="30" height="30" as="geometry" />
        </mxCell>
        <mxCell id="fQTumMXNS3Mo2PDMPsu8-49" value="ipmi_segment - IPMI网段" style="shape=partialRectangle;connectable=0;fillColor=none;top=0;left=0;bottom=0;right=0;align=left;spacingLeft=6;overflow=hidden;" vertex="1" parent="fQTumMXNS3Mo2PDMPsu8-47">
          <mxGeometry x="30" width="150" height="30" as="geometry" />
        </mxCell>
        <mxCell id="fQTumMXNS3Mo2PDMPsu8-50" value="" style="shape=partialRectangle;collapsible=0;dropTarget=0;pointerEvents=0;fillColor=none;top=0;left=0;bottom=0;right=0;points=[[0,0.5],[1,0.5]];portConstraint=eastwest;" vertex="1" parent="fQTumMXNS3Mo2PDMPsu8-28">
          <mxGeometry y="240" width="180" height="30" as="geometry" />
        </mxCell>
        <mxCell id="fQTumMXNS3Mo2PDMPsu8-51" value="" style="shape=partialRectangle;connectable=0;fillColor=none;top=0;left=0;bottom=0;right=0;editable=1;overflow=hidden;" vertex="1" parent="fQTumMXNS3Mo2PDMPsu8-50">
          <mxGeometry width="30" height="30" as="geometry" />
        </mxCell>
        <mxCell id="fQTumMXNS3Mo2PDMPsu8-52" value="dhcp_ip - 动态IP" style="shape=partialRectangle;connectable=0;fillColor=none;top=0;left=0;bottom=0;right=0;align=left;spacingLeft=6;overflow=hidden;" vertex="1" parent="fQTumMXNS3Mo2PDMPsu8-50">
          <mxGeometry x="30" width="150" height="30" as="geometry" />
        </mxCell>
        <mxCell id="fQTumMXNS3Mo2PDMPsu8-53" value="" style="shape=partialRectangle;collapsible=0;dropTarget=0;pointerEvents=0;fillColor=none;top=0;left=0;bottom=0;right=0;points=[[0,0.5],[1,0.5]];portConstraint=eastwest;" vertex="1" parent="fQTumMXNS3Mo2PDMPsu8-28">
          <mxGeometry y="270" width="180" height="30" as="geometry" />
        </mxCell>
        <mxCell id="fQTumMXNS3Mo2PDMPsu8-54" value="" style="shape=partialRectangle;connectable=0;fillColor=none;top=0;left=0;bottom=0;right=0;editable=1;overflow=hidden;" vertex="1" parent="fQTumMXNS3Mo2PDMPsu8-53">
          <mxGeometry width="30" height="30" as="geometry" />
        </mxCell>
        <mxCell id="fQTumMXNS3Mo2PDMPsu8-55" value="dhcp_ipmi - 动态IPMI" style="shape=partialRectangle;connectable=0;fillColor=none;top=0;left=0;bottom=0;right=0;align=left;spacingLeft=6;overflow=hidden;" vertex="1" parent="fQTumMXNS3Mo2PDMPsu8-53">
          <mxGeometry x="30" width="150" height="30" as="geometry" />
        </mxCell>
        <mxCell id="fQTumMXNS3Mo2PDMPsu8-56" value="" style="shape=partialRectangle;collapsible=0;dropTarget=0;pointerEvents=0;fillColor=none;top=0;left=0;bottom=0;right=0;points=[[0,0.5],[1,0.5]];portConstraint=eastwest;" vertex="1" parent="fQTumMXNS3Mo2PDMPsu8-28">
          <mxGeometry y="300" width="180" height="30" as="geometry" />
        </mxCell>
        <mxCell id="fQTumMXNS3Mo2PDMPsu8-57" value="" style="shape=partialRectangle;connectable=0;fillColor=none;top=0;left=0;bottom=0;right=0;editable=1;overflow=hidden;" vertex="1" parent="fQTumMXNS3Mo2PDMPsu8-56">
          <mxGeometry width="30" height="30" as="geometry" />
        </mxCell>
        <mxCell id="fQTumMXNS3Mo2PDMPsu8-58" value="hostname - 主机名" style="shape=partialRectangle;connectable=0;fillColor=none;top=0;left=0;bottom=0;right=0;align=left;spacingLeft=6;overflow=hidden;" vertex="1" parent="fQTumMXNS3Mo2PDMPsu8-56">
          <mxGeometry x="30" width="150" height="30" as="geometry" />
        </mxCell>
        <mxCell id="fQTumMXNS3Mo2PDMPsu8-63" value="SwitchPort" style="shape=table;startSize=30;container=1;collapsible=1;childLayout=tableLayout;fixedRows=1;rowLines=0;fontStyle=1;align=center;resizeLast=1;" vertex="1" parent="1">
          <mxGeometry x="339" y="-430" width="180" height="160" as="geometry" />
        </mxCell>
        <mxCell id="fQTumMXNS3Mo2PDMPsu8-64" value="" style="shape=partialRectangle;collapsible=0;dropTarget=0;pointerEvents=0;fillColor=none;top=0;left=0;bottom=1;right=0;points=[[0,0.5],[1,0.5]];portConstraint=eastwest;" vertex="1" parent="fQTumMXNS3Mo2PDMPsu8-63">
          <mxGeometry y="30" width="180" height="30" as="geometry" />
        </mxCell>
        <mxCell id="fQTumMXNS3Mo2PDMPsu8-65" value="PK" style="shape=partialRectangle;connectable=0;fillColor=none;top=0;left=0;bottom=0;right=0;fontStyle=1;overflow=hidden;" vertex="1" parent="fQTumMXNS3Mo2PDMPsu8-64">
          <mxGeometry width="30" height="30" as="geometry" />
        </mxCell>
        <mxCell id="fQTumMXNS3Mo2PDMPsu8-66" value="UniqueID" style="shape=partialRectangle;connectable=0;fillColor=none;top=0;left=0;bottom=0;right=0;align=left;spacingLeft=6;fontStyle=5;overflow=hidden;" vertex="1" parent="fQTumMXNS3Mo2PDMPsu8-64">
          <mxGeometry x="30" width="150" height="30" as="geometry" />
        </mxCell>
        <mxCell id="fQTumMXNS3Mo2PDMPsu8-67" value="" style="shape=partialRectangle;collapsible=0;dropTarget=0;pointerEvents=0;fillColor=none;top=0;left=0;bottom=0;right=0;points=[[0,0.5],[1,0.5]];portConstraint=eastwest;" vertex="1" parent="fQTumMXNS3Mo2PDMPsu8-63">
          <mxGeometry y="60" width="180" height="30" as="geometry" />
        </mxCell>
        <mxCell id="fQTumMXNS3Mo2PDMPsu8-68" value="" style="shape=partialRectangle;connectable=0;fillColor=none;top=0;left=0;bottom=0;right=0;editable=1;overflow=hidden;" vertex="1" parent="fQTumMXNS3Mo2PDMPsu8-67">
          <mxGeometry width="30" height="30" as="geometry" />
        </mxCell>
        <mxCell id="fQTumMXNS3Mo2PDMPsu8-69" value="Row 1" style="shape=partialRectangle;connectable=0;fillColor=none;top=0;left=0;bottom=0;right=0;align=left;spacingLeft=6;overflow=hidden;" vertex="1" parent="fQTumMXNS3Mo2PDMPsu8-67">
          <mxGeometry x="30" width="150" height="30" as="geometry" />
        </mxCell>
        <mxCell id="fQTumMXNS3Mo2PDMPsu8-70" value="" style="shape=partialRectangle;collapsible=0;dropTarget=0;pointerEvents=0;fillColor=none;top=0;left=0;bottom=0;right=0;points=[[0,0.5],[1,0.5]];portConstraint=eastwest;" vertex="1" parent="fQTumMXNS3Mo2PDMPsu8-63">
          <mxGeometry y="90" width="180" height="30" as="geometry" />
        </mxCell>
        <mxCell id="fQTumMXNS3Mo2PDMPsu8-71" value="" style="shape=partialRectangle;connectable=0;fillColor=none;top=0;left=0;bottom=0;right=0;editable=1;overflow=hidden;" vertex="1" parent="fQTumMXNS3Mo2PDMPsu8-70">
          <mxGeometry width="30" height="30" as="geometry" />
        </mxCell>
        <mxCell id="fQTumMXNS3Mo2PDMPsu8-72" value="Row 2" style="shape=partialRectangle;connectable=0;fillColor=none;top=0;left=0;bottom=0;right=0;align=left;spacingLeft=6;overflow=hidden;" vertex="1" parent="fQTumMXNS3Mo2PDMPsu8-70">
          <mxGeometry x="30" width="150" height="30" as="geometry" />
        </mxCell>
        <mxCell id="fQTumMXNS3Mo2PDMPsu8-73" value="" style="shape=partialRectangle;collapsible=0;dropTarget=0;pointerEvents=0;fillColor=none;top=0;left=0;bottom=0;right=0;points=[[0,0.5],[1,0.5]];portConstraint=eastwest;" vertex="1" parent="fQTumMXNS3Mo2PDMPsu8-63">
          <mxGeometry y="120" width="180" height="30" as="geometry" />
        </mxCell>
        <mxCell id="fQTumMXNS3Mo2PDMPsu8-74" value="" style="shape=partialRectangle;connectable=0;fillColor=none;top=0;left=0;bottom=0;right=0;editable=1;overflow=hidden;" vertex="1" parent="fQTumMXNS3Mo2PDMPsu8-73">
          <mxGeometry width="30" height="30" as="geometry" />
        </mxCell>
        <mxCell id="fQTumMXNS3Mo2PDMPsu8-75" value="Row 3" style="shape=partialRectangle;connectable=0;fillColor=none;top=0;left=0;bottom=0;right=0;align=left;spacingLeft=6;overflow=hidden;" vertex="1" parent="fQTumMXNS3Mo2PDMPsu8-73">
          <mxGeometry x="30" width="150" height="30" as="geometry" />
        </mxCell>
        <mxCell id="fQTumMXNS3Mo2PDMPsu8-80" value="Action" style="shape=table;startSize=30;container=1;collapsible=1;childLayout=tableLayout;fixedRows=1;rowLines=0;fontStyle=1;align=center;resizeLast=1;" vertex="1" parent="1">
          <mxGeometry x="559" y="-430" width="180" height="160" as="geometry" />
        </mxCell>
        <mxCell id="fQTumMXNS3Mo2PDMPsu8-81" value="" style="shape=partialRectangle;collapsible=0;dropTarget=0;pointerEvents=0;fillColor=none;top=0;left=0;bottom=1;right=0;points=[[0,0.5],[1,0.5]];portConstraint=eastwest;" vertex="1" parent="fQTumMXNS3Mo2PDMPsu8-80">
          <mxGeometry y="30" width="180" height="30" as="geometry" />
        </mxCell>
        <mxCell id="fQTumMXNS3Mo2PDMPsu8-82" value="PK" style="shape=partialRectangle;connectable=0;fillColor=none;top=0;left=0;bottom=0;right=0;fontStyle=1;overflow=hidden;" vertex="1" parent="fQTumMXNS3Mo2PDMPsu8-81">
          <mxGeometry width="30" height="30" as="geometry" />
        </mxCell>
        <mxCell id="fQTumMXNS3Mo2PDMPsu8-83" value="UniqueID" style="shape=partialRectangle;connectable=0;fillColor=none;top=0;left=0;bottom=0;right=0;align=left;spacingLeft=6;fontStyle=5;overflow=hidden;" vertex="1" parent="fQTumMXNS3Mo2PDMPsu8-81">
          <mxGeometry x="30" width="150" height="30" as="geometry" />
        </mxCell>
        <mxCell id="fQTumMXNS3Mo2PDMPsu8-84" value="" style="shape=partialRectangle;collapsible=0;dropTarget=0;pointerEvents=0;fillColor=none;top=0;left=0;bottom=0;right=0;points=[[0,0.5],[1,0.5]];portConstraint=eastwest;" vertex="1" parent="fQTumMXNS3Mo2PDMPsu8-80">
          <mxGeometry y="60" width="180" height="30" as="geometry" />
        </mxCell>
        <mxCell id="fQTumMXNS3Mo2PDMPsu8-85" value="" style="shape=partialRectangle;connectable=0;fillColor=none;top=0;left=0;bottom=0;right=0;editable=1;overflow=hidden;" vertex="1" parent="fQTumMXNS3Mo2PDMPsu8-84">
          <mxGeometry width="30" height="30" as="geometry" />
        </mxCell>
        <mxCell id="fQTumMXNS3Mo2PDMPsu8-86" value="Row 1" style="shape=partialRectangle;connectable=0;fillColor=none;top=0;left=0;bottom=0;right=0;align=left;spacingLeft=6;overflow=hidden;" vertex="1" parent="fQTumMXNS3Mo2PDMPsu8-84">
          <mxGeometry x="30" width="150" height="30" as="geometry" />
        </mxCell>
        <mxCell id="fQTumMXNS3Mo2PDMPsu8-87" value="" style="shape=partialRectangle;collapsible=0;dropTarget=0;pointerEvents=0;fillColor=none;top=0;left=0;bottom=0;right=0;points=[[0,0.5],[1,0.5]];portConstraint=eastwest;" vertex="1" parent="fQTumMXNS3Mo2PDMPsu8-80">
          <mxGeometry y="90" width="180" height="30" as="geometry" />
        </mxCell>
        <mxCell id="fQTumMXNS3Mo2PDMPsu8-88" value="" style="shape=partialRectangle;connectable=0;fillColor=none;top=0;left=0;bottom=0;right=0;editable=1;overflow=hidden;" vertex="1" parent="fQTumMXNS3Mo2PDMPsu8-87">
          <mxGeometry width="30" height="30" as="geometry" />
        </mxCell>
        <mxCell id="fQTumMXNS3Mo2PDMPsu8-89" value="Row 2" style="shape=partialRectangle;connectable=0;fillColor=none;top=0;left=0;bottom=0;right=0;align=left;spacingLeft=6;overflow=hidden;" vertex="1" parent="fQTumMXNS3Mo2PDMPsu8-87">
          <mxGeometry x="30" width="150" height="30" as="geometry" />
        </mxCell>
        <mxCell id="fQTumMXNS3Mo2PDMPsu8-90" value="" style="shape=partialRectangle;collapsible=0;dropTarget=0;pointerEvents=0;fillColor=none;top=0;left=0;bottom=0;right=0;points=[[0,0.5],[1,0.5]];portConstraint=eastwest;" vertex="1" parent="fQTumMXNS3Mo2PDMPsu8-80">
          <mxGeometry y="120" width="180" height="30" as="geometry" />
        </mxCell>
        <mxCell id="fQTumMXNS3Mo2PDMPsu8-91" value="" style="shape=partialRectangle;connectable=0;fillColor=none;top=0;left=0;bottom=0;right=0;editable=1;overflow=hidden;" vertex="1" parent="fQTumMXNS3Mo2PDMPsu8-90">
          <mxGeometry width="30" height="30" as="geometry" />
        </mxCell>
        <mxCell id="fQTumMXNS3Mo2PDMPsu8-92" value="Row 3" style="shape=partialRectangle;connectable=0;fillColor=none;top=0;left=0;bottom=0;right=0;align=left;spacingLeft=6;overflow=hidden;" vertex="1" parent="fQTumMXNS3Mo2PDMPsu8-90">
          <mxGeometry x="30" width="150" height="30" as="geometry" />
        </mxCell>
        <mxCell id="fQTumMXNS3Mo2PDMPsu8-93" value="Status" style="shape=table;startSize=30;container=1;collapsible=1;childLayout=tableLayout;fixedRows=1;rowLines=0;fontStyle=1;align=center;resizeLast=1;" vertex="1" parent="1">
          <mxGeometry x="559" y="-240" width="180" height="160" as="geometry" />
        </mxCell>
        <mxCell id="fQTumMXNS3Mo2PDMPsu8-94" value="" style="shape=partialRectangle;collapsible=0;dropTarget=0;pointerEvents=0;fillColor=none;top=0;left=0;bottom=1;right=0;points=[[0,0.5],[1,0.5]];portConstraint=eastwest;" vertex="1" parent="fQTumMXNS3Mo2PDMPsu8-93">
          <mxGeometry y="30" width="180" height="30" as="geometry" />
        </mxCell>
        <mxCell id="fQTumMXNS3Mo2PDMPsu8-95" value="PK" style="shape=partialRectangle;connectable=0;fillColor=none;top=0;left=0;bottom=0;right=0;fontStyle=1;overflow=hidden;" vertex="1" parent="fQTumMXNS3Mo2PDMPsu8-94">
          <mxGeometry width="30" height="30" as="geometry" />
        </mxCell>
        <mxCell id="fQTumMXNS3Mo2PDMPsu8-96" value="UniqueID" style="shape=partialRectangle;connectable=0;fillColor=none;top=0;left=0;bottom=0;right=0;align=left;spacingLeft=6;fontStyle=5;overflow=hidden;" vertex="1" parent="fQTumMXNS3Mo2PDMPsu8-94">
          <mxGeometry x="30" width="150" height="30" as="geometry" />
        </mxCell>
        <mxCell id="fQTumMXNS3Mo2PDMPsu8-97" value="" style="shape=partialRectangle;collapsible=0;dropTarget=0;pointerEvents=0;fillColor=none;top=0;left=0;bottom=0;right=0;points=[[0,0.5],[1,0.5]];portConstraint=eastwest;" vertex="1" parent="fQTumMXNS3Mo2PDMPsu8-93">
          <mxGeometry y="60" width="180" height="30" as="geometry" />
        </mxCell>
        <mxCell id="fQTumMXNS3Mo2PDMPsu8-98" value="" style="shape=partialRectangle;connectable=0;fillColor=none;top=0;left=0;bottom=0;right=0;editable=1;overflow=hidden;" vertex="1" parent="fQTumMXNS3Mo2PDMPsu8-97">
          <mxGeometry width="30" height="30" as="geometry" />
        </mxCell>
        <mxCell id="fQTumMXNS3Mo2PDMPsu8-99" value="Row 1" style="shape=partialRectangle;connectable=0;fillColor=none;top=0;left=0;bottom=0;right=0;align=left;spacingLeft=6;overflow=hidden;" vertex="1" parent="fQTumMXNS3Mo2PDMPsu8-97">
          <mxGeometry x="30" width="150" height="30" as="geometry" />
        </mxCell>
        <mxCell id="fQTumMXNS3Mo2PDMPsu8-100" value="" style="shape=partialRectangle;collapsible=0;dropTarget=0;pointerEvents=0;fillColor=none;top=0;left=0;bottom=0;right=0;points=[[0,0.5],[1,0.5]];portConstraint=eastwest;" vertex="1" parent="fQTumMXNS3Mo2PDMPsu8-93">
          <mxGeometry y="90" width="180" height="30" as="geometry" />
        </mxCell>
        <mxCell id="fQTumMXNS3Mo2PDMPsu8-101" value="" style="shape=partialRectangle;connectable=0;fillColor=none;top=0;left=0;bottom=0;right=0;editable=1;overflow=hidden;" vertex="1" parent="fQTumMXNS3Mo2PDMPsu8-100">
          <mxGeometry width="30" height="30" as="geometry" />
        </mxCell>
        <mxCell id="fQTumMXNS3Mo2PDMPsu8-102" value="Row 2" style="shape=partialRectangle;connectable=0;fillColor=none;top=0;left=0;bottom=0;right=0;align=left;spacingLeft=6;overflow=hidden;" vertex="1" parent="fQTumMXNS3Mo2PDMPsu8-100">
          <mxGeometry x="30" width="150" height="30" as="geometry" />
        </mxCell>
        <mxCell id="fQTumMXNS3Mo2PDMPsu8-103" value="" style="shape=partialRectangle;collapsible=0;dropTarget=0;pointerEvents=0;fillColor=none;top=0;left=0;bottom=0;right=0;points=[[0,0.5],[1,0.5]];portConstraint=eastwest;" vertex="1" parent="fQTumMXNS3Mo2PDMPsu8-93">
          <mxGeometry y="120" width="180" height="30" as="geometry" />
        </mxCell>
        <mxCell id="fQTumMXNS3Mo2PDMPsu8-104" value="" style="shape=partialRectangle;connectable=0;fillColor=none;top=0;left=0;bottom=0;right=0;editable=1;overflow=hidden;" vertex="1" parent="fQTumMXNS3Mo2PDMPsu8-103">
          <mxGeometry width="30" height="30" as="geometry" />
        </mxCell>
        <mxCell id="fQTumMXNS3Mo2PDMPsu8-105" value="Row 3" style="shape=partialRectangle;connectable=0;fillColor=none;top=0;left=0;bottom=0;right=0;align=left;spacingLeft=6;overflow=hidden;" vertex="1" parent="fQTumMXNS3Mo2PDMPsu8-103">
          <mxGeometry x="30" width="150" height="30" as="geometry" />
        </mxCell>
        <mxCell id="fQTumMXNS3Mo2PDMPsu8-106" value="Role" style="shape=table;startSize=30;container=1;collapsible=1;childLayout=tableLayout;fixedRows=1;rowLines=0;fontStyle=1;align=center;resizeLast=1;" vertex="1" parent="1">
          <mxGeometry x="343" y="-40" width="180" height="160" as="geometry" />
        </mxCell>
        <mxCell id="fQTumMXNS3Mo2PDMPsu8-107" value="" style="shape=partialRectangle;collapsible=0;dropTarget=0;pointerEvents=0;fillColor=none;top=0;left=0;bottom=1;right=0;points=[[0,0.5],[1,0.5]];portConstraint=eastwest;" vertex="1" parent="fQTumMXNS3Mo2PDMPsu8-106">
          <mxGeometry y="30" width="180" height="30" as="geometry" />
        </mxCell>
        <mxCell id="fQTumMXNS3Mo2PDMPsu8-108" value="PK" style="shape=partialRectangle;connectable=0;fillColor=none;top=0;left=0;bottom=0;right=0;fontStyle=1;overflow=hidden;" vertex="1" parent="fQTumMXNS3Mo2PDMPsu8-107">
          <mxGeometry width="30" height="30" as="geometry" />
        </mxCell>
        <mxCell id="fQTumMXNS3Mo2PDMPsu8-109" value="UniqueID" style="shape=partialRectangle;connectable=0;fillColor=none;top=0;left=0;bottom=0;right=0;align=left;spacingLeft=6;fontStyle=5;overflow=hidden;" vertex="1" parent="fQTumMXNS3Mo2PDMPsu8-107">
          <mxGeometry x="30" width="150" height="30" as="geometry" />
        </mxCell>
        <mxCell id="fQTumMXNS3Mo2PDMPsu8-110" value="" style="shape=partialRectangle;collapsible=0;dropTarget=0;pointerEvents=0;fillColor=none;top=0;left=0;bottom=0;right=0;points=[[0,0.5],[1,0.5]];portConstraint=eastwest;" vertex="1" parent="fQTumMXNS3Mo2PDMPsu8-106">
          <mxGeometry y="60" width="180" height="30" as="geometry" />
        </mxCell>
        <mxCell id="fQTumMXNS3Mo2PDMPsu8-111" value="" style="shape=partialRectangle;connectable=0;fillColor=none;top=0;left=0;bottom=0;right=0;editable=1;overflow=hidden;" vertex="1" parent="fQTumMXNS3Mo2PDMPsu8-110">
          <mxGeometry width="30" height="30" as="geometry" />
        </mxCell>
        <mxCell id="fQTumMXNS3Mo2PDMPsu8-112" value="Row 1" style="shape=partialRectangle;connectable=0;fillColor=none;top=0;left=0;bottom=0;right=0;align=left;spacingLeft=6;overflow=hidden;" vertex="1" parent="fQTumMXNS3Mo2PDMPsu8-110">
          <mxGeometry x="30" width="150" height="30" as="geometry" />
        </mxCell>
        <mxCell id="fQTumMXNS3Mo2PDMPsu8-113" value="" style="shape=partialRectangle;collapsible=0;dropTarget=0;pointerEvents=0;fillColor=none;top=0;left=0;bottom=0;right=0;points=[[0,0.5],[1,0.5]];portConstraint=eastwest;" vertex="1" parent="fQTumMXNS3Mo2PDMPsu8-106">
          <mxGeometry y="90" width="180" height="30" as="geometry" />
        </mxCell>
        <mxCell id="fQTumMXNS3Mo2PDMPsu8-114" value="" style="shape=partialRectangle;connectable=0;fillColor=none;top=0;left=0;bottom=0;right=0;editable=1;overflow=hidden;" vertex="1" parent="fQTumMXNS3Mo2PDMPsu8-113">
          <mxGeometry width="30" height="30" as="geometry" />
        </mxCell>
        <mxCell id="fQTumMXNS3Mo2PDMPsu8-115" value="Row 2" style="shape=partialRectangle;connectable=0;fillColor=none;top=0;left=0;bottom=0;right=0;align=left;spacingLeft=6;overflow=hidden;" vertex="1" parent="fQTumMXNS3Mo2PDMPsu8-113">
          <mxGeometry x="30" width="150" height="30" as="geometry" />
        </mxCell>
        <mxCell id="fQTumMXNS3Mo2PDMPsu8-116" value="" style="shape=partialRectangle;collapsible=0;dropTarget=0;pointerEvents=0;fillColor=none;top=0;left=0;bottom=0;right=0;points=[[0,0.5],[1,0.5]];portConstraint=eastwest;" vertex="1" parent="fQTumMXNS3Mo2PDMPsu8-106">
          <mxGeometry y="120" width="180" height="30" as="geometry" />
        </mxCell>
        <mxCell id="fQTumMXNS3Mo2PDMPsu8-117" value="" style="shape=partialRectangle;connectable=0;fillColor=none;top=0;left=0;bottom=0;right=0;editable=1;overflow=hidden;" vertex="1" parent="fQTumMXNS3Mo2PDMPsu8-116">
          <mxGeometry width="30" height="30" as="geometry" />
        </mxCell>
        <mxCell id="fQTumMXNS3Mo2PDMPsu8-118" value="Row 3" style="shape=partialRectangle;connectable=0;fillColor=none;top=0;left=0;bottom=0;right=0;align=left;spacingLeft=6;overflow=hidden;" vertex="1" parent="fQTumMXNS3Mo2PDMPsu8-116">
          <mxGeometry x="30" width="150" height="30" as="geometry" />
        </mxCell>
        <mxCell id="fQTumMXNS3Mo2PDMPsu8-119" value="User" style="shape=table;startSize=30;container=1;collapsible=1;childLayout=tableLayout;fixedRows=1;rowLines=0;fontStyle=1;align=center;resizeLast=1;" vertex="1" parent="1">
          <mxGeometry x="559" y="-40" width="180" height="160" as="geometry" />
        </mxCell>
        <mxCell id="fQTumMXNS3Mo2PDMPsu8-120" value="" style="shape=partialRectangle;collapsible=0;dropTarget=0;pointerEvents=0;fillColor=none;top=0;left=0;bottom=1;right=0;points=[[0,0.5],[1,0.5]];portConstraint=eastwest;" vertex="1" parent="fQTumMXNS3Mo2PDMPsu8-119">
          <mxGeometry y="30" width="180" height="30" as="geometry" />
        </mxCell>
        <mxCell id="fQTumMXNS3Mo2PDMPsu8-121" value="PK" style="shape=partialRectangle;connectable=0;fillColor=none;top=0;left=0;bottom=0;right=0;fontStyle=1;overflow=hidden;" vertex="1" parent="fQTumMXNS3Mo2PDMPsu8-120">
          <mxGeometry width="30" height="30" as="geometry" />
        </mxCell>
        <mxCell id="fQTumMXNS3Mo2PDMPsu8-122" value="UniqueID" style="shape=partialRectangle;connectable=0;fillColor=none;top=0;left=0;bottom=0;right=0;align=left;spacingLeft=6;fontStyle=5;overflow=hidden;" vertex="1" parent="fQTumMXNS3Mo2PDMPsu8-120">
          <mxGeometry x="30" width="150" height="30" as="geometry" />
        </mxCell>
        <mxCell id="fQTumMXNS3Mo2PDMPsu8-123" value="" style="shape=partialRectangle;collapsible=0;dropTarget=0;pointerEvents=0;fillColor=none;top=0;left=0;bottom=0;right=0;points=[[0,0.5],[1,0.5]];portConstraint=eastwest;" vertex="1" parent="fQTumMXNS3Mo2PDMPsu8-119">
          <mxGeometry y="60" width="180" height="30" as="geometry" />
        </mxCell>
        <mxCell id="fQTumMXNS3Mo2PDMPsu8-124" value="" style="shape=partialRectangle;connectable=0;fillColor=none;top=0;left=0;bottom=0;right=0;editable=1;overflow=hidden;" vertex="1" parent="fQTumMXNS3Mo2PDMPsu8-123">
          <mxGeometry width="30" height="30" as="geometry" />
        </mxCell>
        <mxCell id="fQTumMXNS3Mo2PDMPsu8-125" value="Row 1" style="shape=partialRectangle;connectable=0;fillColor=none;top=0;left=0;bottom=0;right=0;align=left;spacingLeft=6;overflow=hidden;" vertex="1" parent="fQTumMXNS3Mo2PDMPsu8-123">
          <mxGeometry x="30" width="150" height="30" as="geometry" />
        </mxCell>
        <mxCell id="fQTumMXNS3Mo2PDMPsu8-126" value="" style="shape=partialRectangle;collapsible=0;dropTarget=0;pointerEvents=0;fillColor=none;top=0;left=0;bottom=0;right=0;points=[[0,0.5],[1,0.5]];portConstraint=eastwest;" vertex="1" parent="fQTumMXNS3Mo2PDMPsu8-119">
          <mxGeometry y="90" width="180" height="30" as="geometry" />
        </mxCell>
        <mxCell id="fQTumMXNS3Mo2PDMPsu8-127" value="" style="shape=partialRectangle;connectable=0;fillColor=none;top=0;left=0;bottom=0;right=0;editable=1;overflow=hidden;" vertex="1" parent="fQTumMXNS3Mo2PDMPsu8-126">
          <mxGeometry width="30" height="30" as="geometry" />
        </mxCell>
        <mxCell id="fQTumMXNS3Mo2PDMPsu8-128" value="Row 2" style="shape=partialRectangle;connectable=0;fillColor=none;top=0;left=0;bottom=0;right=0;align=left;spacingLeft=6;overflow=hidden;" vertex="1" parent="fQTumMXNS3Mo2PDMPsu8-126">
          <mxGeometry x="30" width="150" height="30" as="geometry" />
        </mxCell>
        <mxCell id="fQTumMXNS3Mo2PDMPsu8-129" value="" style="shape=partialRectangle;collapsible=0;dropTarget=0;pointerEvents=0;fillColor=none;top=0;left=0;bottom=0;right=0;points=[[0,0.5],[1,0.5]];portConstraint=eastwest;" vertex="1" parent="fQTumMXNS3Mo2PDMPsu8-119">
          <mxGeometry y="120" width="180" height="30" as="geometry" />
        </mxCell>
        <mxCell id="fQTumMXNS3Mo2PDMPsu8-130" value="" style="shape=partialRectangle;connectable=0;fillColor=none;top=0;left=0;bottom=0;right=0;editable=1;overflow=hidden;" vertex="1" parent="fQTumMXNS3Mo2PDMPsu8-129">
          <mxGeometry width="30" height="30" as="geometry" />
        </mxCell>
        <mxCell id="fQTumMXNS3Mo2PDMPsu8-131" value="Row 3" style="shape=partialRectangle;connectable=0;fillColor=none;top=0;left=0;bottom=0;right=0;align=left;spacingLeft=6;overflow=hidden;" vertex="1" parent="fQTumMXNS3Mo2PDMPsu8-129">
          <mxGeometry x="30" width="150" height="30" as="geometry" />
        </mxCell>
        <mxCell id="fQTumMXNS3Mo2PDMPsu8-132" value="ArchivedServer" style="shape=table;startSize=30;container=1;collapsible=1;childLayout=tableLayout;fixedRows=1;rowLines=0;fontStyle=1;align=center;resizeLast=1;" vertex="1" parent="1">
          <mxGeometry x="89" y="220" width="180" height="160" as="geometry" />
        </mxCell>
        <mxCell id="fQTumMXNS3Mo2PDMPsu8-133" value="" style="shape=partialRectangle;collapsible=0;dropTarget=0;pointerEvents=0;fillColor=none;top=0;left=0;bottom=1;right=0;points=[[0,0.5],[1,0.5]];portConstraint=eastwest;" vertex="1" parent="fQTumMXNS3Mo2PDMPsu8-132">
          <mxGeometry y="30" width="180" height="30" as="geometry" />
        </mxCell>
        <mxCell id="fQTumMXNS3Mo2PDMPsu8-134" value="PK" style="shape=partialRectangle;connectable=0;fillColor=none;top=0;left=0;bottom=0;right=0;fontStyle=1;overflow=hidden;" vertex="1" parent="fQTumMXNS3Mo2PDMPsu8-133">
          <mxGeometry width="30" height="30" as="geometry" />
        </mxCell>
        <mxCell id="fQTumMXNS3Mo2PDMPsu8-135" value="UniqueID" style="shape=partialRectangle;connectable=0;fillColor=none;top=0;left=0;bottom=0;right=0;align=left;spacingLeft=6;fontStyle=5;overflow=hidden;" vertex="1" parent="fQTumMXNS3Mo2PDMPsu8-133">
          <mxGeometry x="30" width="150" height="30" as="geometry" />
        </mxCell>
        <mxCell id="fQTumMXNS3Mo2PDMPsu8-136" value="" style="shape=partialRectangle;collapsible=0;dropTarget=0;pointerEvents=0;fillColor=none;top=0;left=0;bottom=0;right=0;points=[[0,0.5],[1,0.5]];portConstraint=eastwest;" vertex="1" parent="fQTumMXNS3Mo2PDMPsu8-132">
          <mxGeometry y="60" width="180" height="30" as="geometry" />
        </mxCell>
        <mxCell id="fQTumMXNS3Mo2PDMPsu8-137" value="" style="shape=partialRectangle;connectable=0;fillColor=none;top=0;left=0;bottom=0;right=0;editable=1;overflow=hidden;" vertex="1" parent="fQTumMXNS3Mo2PDMPsu8-136">
          <mxGeometry width="30" height="30" as="geometry" />
        </mxCell>
        <mxCell id="fQTumMXNS3Mo2PDMPsu8-138" value="Row 1" style="shape=partialRectangle;connectable=0;fillColor=none;top=0;left=0;bottom=0;right=0;align=left;spacingLeft=6;overflow=hidden;" vertex="1" parent="fQTumMXNS3Mo2PDMPsu8-136">
          <mxGeometry x="30" width="150" height="30" as="geometry" />
        </mxCell>
        <mxCell id="fQTumMXNS3Mo2PDMPsu8-139" value="" style="shape=partialRectangle;collapsible=0;dropTarget=0;pointerEvents=0;fillColor=none;top=0;left=0;bottom=0;right=0;points=[[0,0.5],[1,0.5]];portConstraint=eastwest;" vertex="1" parent="fQTumMXNS3Mo2PDMPsu8-132">
          <mxGeometry y="90" width="180" height="30" as="geometry" />
        </mxCell>
        <mxCell id="fQTumMXNS3Mo2PDMPsu8-140" value="" style="shape=partialRectangle;connectable=0;fillColor=none;top=0;left=0;bottom=0;right=0;editable=1;overflow=hidden;" vertex="1" parent="fQTumMXNS3Mo2PDMPsu8-139">
          <mxGeometry width="30" height="30" as="geometry" />
        </mxCell>
        <mxCell id="fQTumMXNS3Mo2PDMPsu8-141" value="Row 2" style="shape=partialRectangle;connectable=0;fillColor=none;top=0;left=0;bottom=0;right=0;align=left;spacingLeft=6;overflow=hidden;" vertex="1" parent="fQTumMXNS3Mo2PDMPsu8-139">
          <mxGeometry x="30" width="150" height="30" as="geometry" />
        </mxCell>
        <mxCell id="fQTumMXNS3Mo2PDMPsu8-142" value="" style="shape=partialRectangle;collapsible=0;dropTarget=0;pointerEvents=0;fillColor=none;top=0;left=0;bottom=0;right=0;points=[[0,0.5],[1,0.5]];portConstraint=eastwest;" vertex="1" parent="fQTumMXNS3Mo2PDMPsu8-132">
          <mxGeometry y="120" width="180" height="30" as="geometry" />
        </mxCell>
        <mxCell id="fQTumMXNS3Mo2PDMPsu8-143" value="" style="shape=partialRectangle;connectable=0;fillColor=none;top=0;left=0;bottom=0;right=0;editable=1;overflow=hidden;" vertex="1" parent="fQTumMXNS3Mo2PDMPsu8-142">
          <mxGeometry width="30" height="30" as="geometry" />
        </mxCell>
        <mxCell id="fQTumMXNS3Mo2PDMPsu8-144" value="Row 3" style="shape=partialRectangle;connectable=0;fillColor=none;top=0;left=0;bottom=0;right=0;align=left;spacingLeft=6;overflow=hidden;" vertex="1" parent="fQTumMXNS3Mo2PDMPsu8-142">
          <mxGeometry x="30" width="150" height="30" as="geometry" />
        </mxCell>
        <mxCell id="fQTumMXNS3Mo2PDMPsu8-145" value="ErrorLog" style="shape=table;startSize=30;container=1;collapsible=1;childLayout=tableLayout;fixedRows=1;rowLines=0;fontStyle=1;align=center;resizeLast=1;" vertex="1" parent="1">
          <mxGeometry x="305" y="220" width="180" height="160" as="geometry" />
        </mxCell>
        <mxCell id="fQTumMXNS3Mo2PDMPsu8-146" value="" style="shape=partialRectangle;collapsible=0;dropTarget=0;pointerEvents=0;fillColor=none;top=0;left=0;bottom=1;right=0;points=[[0,0.5],[1,0.5]];portConstraint=eastwest;" vertex="1" parent="fQTumMXNS3Mo2PDMPsu8-145">
          <mxGeometry y="30" width="180" height="30" as="geometry" />
        </mxCell>
        <mxCell id="fQTumMXNS3Mo2PDMPsu8-147" value="PK" style="shape=partialRectangle;connectable=0;fillColor=none;top=0;left=0;bottom=0;right=0;fontStyle=1;overflow=hidden;" vertex="1" parent="fQTumMXNS3Mo2PDMPsu8-146">
          <mxGeometry width="30" height="30" as="geometry" />
        </mxCell>
        <mxCell id="fQTumMXNS3Mo2PDMPsu8-148" value="UniqueID" style="shape=partialRectangle;connectable=0;fillColor=none;top=0;left=0;bottom=0;right=0;align=left;spacingLeft=6;fontStyle=5;overflow=hidden;" vertex="1" parent="fQTumMXNS3Mo2PDMPsu8-146">
          <mxGeometry x="30" width="150" height="30" as="geometry" />
        </mxCell>
        <mxCell id="fQTumMXNS3Mo2PDMPsu8-149" value="" style="shape=partialRectangle;collapsible=0;dropTarget=0;pointerEvents=0;fillColor=none;top=0;left=0;bottom=0;right=0;points=[[0,0.5],[1,0.5]];portConstraint=eastwest;" vertex="1" parent="fQTumMXNS3Mo2PDMPsu8-145">
          <mxGeometry y="60" width="180" height="30" as="geometry" />
        </mxCell>
        <mxCell id="fQTumMXNS3Mo2PDMPsu8-150" value="" style="shape=partialRectangle;connectable=0;fillColor=none;top=0;left=0;bottom=0;right=0;editable=1;overflow=hidden;" vertex="1" parent="fQTumMXNS3Mo2PDMPsu8-149">
          <mxGeometry width="30" height="30" as="geometry" />
        </mxCell>
        <mxCell id="fQTumMXNS3Mo2PDMPsu8-151" value="Row 1" style="shape=partialRectangle;connectable=0;fillColor=none;top=0;left=0;bottom=0;right=0;align=left;spacingLeft=6;overflow=hidden;" vertex="1" parent="fQTumMXNS3Mo2PDMPsu8-149">
          <mxGeometry x="30" width="150" height="30" as="geometry" />
        </mxCell>
        <mxCell id="fQTumMXNS3Mo2PDMPsu8-152" value="" style="shape=partialRectangle;collapsible=0;dropTarget=0;pointerEvents=0;fillColor=none;top=0;left=0;bottom=0;right=0;points=[[0,0.5],[1,0.5]];portConstraint=eastwest;" vertex="1" parent="fQTumMXNS3Mo2PDMPsu8-145">
          <mxGeometry y="90" width="180" height="30" as="geometry" />
        </mxCell>
        <mxCell id="fQTumMXNS3Mo2PDMPsu8-153" value="" style="shape=partialRectangle;connectable=0;fillColor=none;top=0;left=0;bottom=0;right=0;editable=1;overflow=hidden;" vertex="1" parent="fQTumMXNS3Mo2PDMPsu8-152">
          <mxGeometry width="30" height="30" as="geometry" />
        </mxCell>
        <mxCell id="fQTumMXNS3Mo2PDMPsu8-154" value="Row 2" style="shape=partialRectangle;connectable=0;fillColor=none;top=0;left=0;bottom=0;right=0;align=left;spacingLeft=6;overflow=hidden;" vertex="1" parent="fQTumMXNS3Mo2PDMPsu8-152">
          <mxGeometry x="30" width="150" height="30" as="geometry" />
        </mxCell>
        <mxCell id="fQTumMXNS3Mo2PDMPsu8-155" value="" style="shape=partialRectangle;collapsible=0;dropTarget=0;pointerEvents=0;fillColor=none;top=0;left=0;bottom=0;right=0;points=[[0,0.5],[1,0.5]];portConstraint=eastwest;" vertex="1" parent="fQTumMXNS3Mo2PDMPsu8-145">
          <mxGeometry y="120" width="180" height="30" as="geometry" />
        </mxCell>
        <mxCell id="fQTumMXNS3Mo2PDMPsu8-156" value="" style="shape=partialRectangle;connectable=0;fillColor=none;top=0;left=0;bottom=0;right=0;editable=1;overflow=hidden;" vertex="1" parent="fQTumMXNS3Mo2PDMPsu8-155">
          <mxGeometry width="30" height="30" as="geometry" />
        </mxCell>
        <mxCell id="fQTumMXNS3Mo2PDMPsu8-157" value="Row 3" style="shape=partialRectangle;connectable=0;fillColor=none;top=0;left=0;bottom=0;right=0;align=left;spacingLeft=6;overflow=hidden;" vertex="1" parent="fQTumMXNS3Mo2PDMPsu8-155">
          <mxGeometry x="30" width="150" height="30" as="geometry" />
        </mxCell>
        <mxCell id="fQTumMXNS3Mo2PDMPsu8-158" value="Server" style="shape=table;startSize=30;container=1;collapsible=1;childLayout=tableLayout;fixedRows=1;rowLines=0;fontStyle=1;align=center;resizeLast=1;" vertex="1" parent="1">
          <mxGeometry x="100" y="-1080" width="180" height="340" as="geometry" />
        </mxCell>
        <mxCell id="fQTumMXNS3Mo2PDMPsu8-159" value="" style="shape=partialRectangle;collapsible=0;dropTarget=0;pointerEvents=0;fillColor=none;top=0;left=0;bottom=1;right=0;points=[[0,0.5],[1,0.5]];portConstraint=eastwest;" vertex="1" parent="fQTumMXNS3Mo2PDMPsu8-158">
          <mxGeometry y="30" width="180" height="30" as="geometry" />
        </mxCell>
        <mxCell id="fQTumMXNS3Mo2PDMPsu8-160" value="PK" style="shape=partialRectangle;connectable=0;fillColor=none;top=0;left=0;bottom=0;right=0;fontStyle=1;overflow=hidden;" vertex="1" parent="fQTumMXNS3Mo2PDMPsu8-159">
          <mxGeometry width="30" height="30" as="geometry" />
        </mxCell>
        <mxCell id="fQTumMXNS3Mo2PDMPsu8-161" value="id" style="shape=partialRectangle;connectable=0;fillColor=none;top=0;left=0;bottom=0;right=0;align=left;spacingLeft=6;fontStyle=5;overflow=hidden;" vertex="1" parent="fQTumMXNS3Mo2PDMPsu8-159">
          <mxGeometry x="30" width="150" height="30" as="geometry" />
        </mxCell>
        <mxCell id="fQTumMXNS3Mo2PDMPsu8-162" value="" style="shape=partialRectangle;collapsible=0;dropTarget=0;pointerEvents=0;fillColor=none;top=0;left=0;bottom=0;right=0;points=[[0,0.5],[1,0.5]];portConstraint=eastwest;" vertex="1" parent="fQTumMXNS3Mo2PDMPsu8-158">
          <mxGeometry y="60" width="180" height="30" as="geometry" />
        </mxCell>
        <mxCell id="fQTumMXNS3Mo2PDMPsu8-163" value="" style="shape=partialRectangle;connectable=0;fillColor=none;top=0;left=0;bottom=0;right=0;editable=1;overflow=hidden;" vertex="1" parent="fQTumMXNS3Mo2PDMPsu8-162">
          <mxGeometry width="30" height="30" as="geometry" />
        </mxCell>
        <mxCell id="fQTumMXNS3Mo2PDMPsu8-164" value="sn - 序列号" style="shape=partialRectangle;connectable=0;fillColor=none;top=0;left=0;bottom=0;right=0;align=left;spacingLeft=6;overflow=hidden;" vertex="1" parent="fQTumMXNS3Mo2PDMPsu8-162">
          <mxGeometry x="30" width="150" height="30" as="geometry" />
        </mxCell>
        <mxCell id="fQTumMXNS3Mo2PDMPsu8-165" value="" style="shape=partialRectangle;collapsible=0;dropTarget=0;pointerEvents=0;fillColor=none;top=0;left=0;bottom=0;right=0;points=[[0,0.5],[1,0.5]];portConstraint=eastwest;" vertex="1" parent="fQTumMXNS3Mo2PDMPsu8-158">
          <mxGeometry y="90" width="180" height="30" as="geometry" />
        </mxCell>
        <mxCell id="fQTumMXNS3Mo2PDMPsu8-166" value="" style="shape=partialRectangle;connectable=0;fillColor=none;top=0;left=0;bottom=0;right=0;editable=1;overflow=hidden;" vertex="1" parent="fQTumMXNS3Mo2PDMPsu8-165">
          <mxGeometry width="30" height="30" as="geometry" />
        </mxCell>
        <mxCell id="fQTumMXNS3Mo2PDMPsu8-167" value="asset_no - 资产编号" style="shape=partialRectangle;connectable=0;fillColor=none;top=0;left=0;bottom=0;right=0;align=left;spacingLeft=6;overflow=hidden;" vertex="1" parent="fQTumMXNS3Mo2PDMPsu8-165">
          <mxGeometry x="30" width="150" height="30" as="geometry" />
        </mxCell>
        <mxCell id="fQTumMXNS3Mo2PDMPsu8-168" value="" style="shape=partialRectangle;collapsible=0;dropTarget=0;pointerEvents=0;fillColor=none;top=0;left=0;bottom=0;right=0;points=[[0,0.5],[1,0.5]];portConstraint=eastwest;" vertex="1" parent="fQTumMXNS3Mo2PDMPsu8-158">
          <mxGeometry y="120" width="180" height="30" as="geometry" />
        </mxCell>
        <mxCell id="fQTumMXNS3Mo2PDMPsu8-169" value="" style="shape=partialRectangle;connectable=0;fillColor=none;top=0;left=0;bottom=0;right=0;editable=1;overflow=hidden;" vertex="1" parent="fQTumMXNS3Mo2PDMPsu8-168">
          <mxGeometry width="30" height="30" as="geometry" />
        </mxCell>
        <mxCell id="fQTumMXNS3Mo2PDMPsu8-170" value="ip - IP地址" style="shape=partialRectangle;connectable=0;fillColor=none;top=0;left=0;bottom=0;right=0;align=left;spacingLeft=6;overflow=hidden;" vertex="1" parent="fQTumMXNS3Mo2PDMPsu8-168">
          <mxGeometry x="30" width="150" height="30" as="geometry" />
        </mxCell>
        <mxCell id="fQTumMXNS3Mo2PDMPsu8-171" value="" style="shape=partialRectangle;collapsible=0;dropTarget=0;pointerEvents=0;fillColor=none;top=0;left=0;bottom=0;right=0;points=[[0,0.5],[1,0.5]];portConstraint=eastwest;" vertex="1" parent="fQTumMXNS3Mo2PDMPsu8-158">
          <mxGeometry y="150" width="180" height="30" as="geometry" />
        </mxCell>
        <mxCell id="fQTumMXNS3Mo2PDMPsu8-172" value="" style="shape=partialRectangle;connectable=0;fillColor=none;top=0;left=0;bottom=0;right=0;editable=1;overflow=hidden;" vertex="1" parent="fQTumMXNS3Mo2PDMPsu8-171">
          <mxGeometry width="30" height="30" as="geometry" />
        </mxCell>
        <mxCell id="fQTumMXNS3Mo2PDMPsu8-173" value="ip_segment - IP网段" style="shape=partialRectangle;connectable=0;fillColor=none;top=0;left=0;bottom=0;right=0;align=left;spacingLeft=6;overflow=hidden;" vertex="1" parent="fQTumMXNS3Mo2PDMPsu8-171">
          <mxGeometry x="30" width="150" height="30" as="geometry" />
        </mxCell>
        <mxCell id="fQTumMXNS3Mo2PDMPsu8-174" value="" style="shape=partialRectangle;collapsible=0;dropTarget=0;pointerEvents=0;fillColor=none;top=0;left=0;bottom=0;right=0;points=[[0,0.5],[1,0.5]];portConstraint=eastwest;" vertex="1" parent="fQTumMXNS3Mo2PDMPsu8-158">
          <mxGeometry y="180" width="180" height="30" as="geometry" />
        </mxCell>
        <mxCell id="fQTumMXNS3Mo2PDMPsu8-175" value="" style="shape=partialRectangle;connectable=0;fillColor=none;top=0;left=0;bottom=0;right=0;editable=1;overflow=hidden;" vertex="1" parent="fQTumMXNS3Mo2PDMPsu8-174">
          <mxGeometry width="30" height="30" as="geometry" />
        </mxCell>
        <mxCell id="fQTumMXNS3Mo2PDMPsu8-176" value="ipmi - IPMI" style="shape=partialRectangle;connectable=0;fillColor=none;top=0;left=0;bottom=0;right=0;align=left;spacingLeft=6;overflow=hidden;" vertex="1" parent="fQTumMXNS3Mo2PDMPsu8-174">
          <mxGeometry x="30" width="150" height="30" as="geometry" />
        </mxCell>
        <mxCell id="fQTumMXNS3Mo2PDMPsu8-177" value="" style="shape=partialRectangle;collapsible=0;dropTarget=0;pointerEvents=0;fillColor=none;top=0;left=0;bottom=0;right=0;points=[[0,0.5],[1,0.5]];portConstraint=eastwest;" vertex="1" parent="fQTumMXNS3Mo2PDMPsu8-158">
          <mxGeometry y="210" width="180" height="30" as="geometry" />
        </mxCell>
        <mxCell id="fQTumMXNS3Mo2PDMPsu8-178" value="" style="shape=partialRectangle;connectable=0;fillColor=none;top=0;left=0;bottom=0;right=0;editable=1;overflow=hidden;" vertex="1" parent="fQTumMXNS3Mo2PDMPsu8-177">
          <mxGeometry width="30" height="30" as="geometry" />
        </mxCell>
        <mxCell id="fQTumMXNS3Mo2PDMPsu8-179" value="ipmi_segment - IPMI网段" style="shape=partialRectangle;connectable=0;fillColor=none;top=0;left=0;bottom=0;right=0;align=left;spacingLeft=6;overflow=hidden;" vertex="1" parent="fQTumMXNS3Mo2PDMPsu8-177">
          <mxGeometry x="30" width="150" height="30" as="geometry" />
        </mxCell>
        <mxCell id="fQTumMXNS3Mo2PDMPsu8-180" value="" style="shape=partialRectangle;collapsible=0;dropTarget=0;pointerEvents=0;fillColor=none;top=0;left=0;bottom=0;right=0;points=[[0,0.5],[1,0.5]];portConstraint=eastwest;" vertex="1" parent="fQTumMXNS3Mo2PDMPsu8-158">
          <mxGeometry y="240" width="180" height="30" as="geometry" />
        </mxCell>
        <mxCell id="fQTumMXNS3Mo2PDMPsu8-181" value="" style="shape=partialRectangle;connectable=0;fillColor=none;top=0;left=0;bottom=0;right=0;editable=1;overflow=hidden;" vertex="1" parent="fQTumMXNS3Mo2PDMPsu8-180">
          <mxGeometry width="30" height="30" as="geometry" />
        </mxCell>
        <mxCell id="fQTumMXNS3Mo2PDMPsu8-182" value="dhcp_ip - 动态IP" style="shape=partialRectangle;connectable=0;fillColor=none;top=0;left=0;bottom=0;right=0;align=left;spacingLeft=6;overflow=hidden;" vertex="1" parent="fQTumMXNS3Mo2PDMPsu8-180">
          <mxGeometry x="30" width="150" height="30" as="geometry" />
        </mxCell>
        <mxCell id="fQTumMXNS3Mo2PDMPsu8-183" value="" style="shape=partialRectangle;collapsible=0;dropTarget=0;pointerEvents=0;fillColor=none;top=0;left=0;bottom=0;right=0;points=[[0,0.5],[1,0.5]];portConstraint=eastwest;" vertex="1" parent="fQTumMXNS3Mo2PDMPsu8-158">
          <mxGeometry y="270" width="180" height="30" as="geometry" />
        </mxCell>
        <mxCell id="fQTumMXNS3Mo2PDMPsu8-184" value="" style="shape=partialRectangle;connectable=0;fillColor=none;top=0;left=0;bottom=0;right=0;editable=1;overflow=hidden;" vertex="1" parent="fQTumMXNS3Mo2PDMPsu8-183">
          <mxGeometry width="30" height="30" as="geometry" />
        </mxCell>
        <mxCell id="fQTumMXNS3Mo2PDMPsu8-185" value="dhcp_ipmi - 动态IPMI" style="shape=partialRectangle;connectable=0;fillColor=none;top=0;left=0;bottom=0;right=0;align=left;spacingLeft=6;overflow=hidden;" vertex="1" parent="fQTumMXNS3Mo2PDMPsu8-183">
          <mxGeometry x="30" width="150" height="30" as="geometry" />
        </mxCell>
        <mxCell id="fQTumMXNS3Mo2PDMPsu8-186" value="" style="shape=partialRectangle;collapsible=0;dropTarget=0;pointerEvents=0;fillColor=none;top=0;left=0;bottom=0;right=0;points=[[0,0.5],[1,0.5]];portConstraint=eastwest;" vertex="1" parent="fQTumMXNS3Mo2PDMPsu8-158">
          <mxGeometry y="300" width="180" height="30" as="geometry" />
        </mxCell>
        <mxCell id="fQTumMXNS3Mo2PDMPsu8-187" value="" style="shape=partialRectangle;connectable=0;fillColor=none;top=0;left=0;bottom=0;right=0;editable=1;overflow=hidden;" vertex="1" parent="fQTumMXNS3Mo2PDMPsu8-186">
          <mxGeometry width="30" height="30" as="geometry" />
        </mxCell>
        <mxCell id="fQTumMXNS3Mo2PDMPsu8-188" value="hostname - 主机名" style="shape=partialRectangle;connectable=0;fillColor=none;top=0;left=0;bottom=0;right=0;align=left;spacingLeft=6;overflow=hidden;" vertex="1" parent="fQTumMXNS3Mo2PDMPsu8-186">
          <mxGeometry x="30" width="150" height="30" as="geometry" />
        </mxCell>
        <mxCell id="fQTumMXNS3Mo2PDMPsu8-189" value="SwitchPort" style="shape=table;startSize=30;container=1;collapsible=1;childLayout=tableLayout;fixedRows=1;rowLines=0;fontStyle=1;align=center;resizeLast=1;" vertex="1" parent="1">
          <mxGeometry x="350" y="-1080" width="180" height="160" as="geometry" />
        </mxCell>
        <mxCell id="fQTumMXNS3Mo2PDMPsu8-190" value="" style="shape=partialRectangle;collapsible=0;dropTarget=0;pointerEvents=0;fillColor=none;top=0;left=0;bottom=1;right=0;points=[[0,0.5],[1,0.5]];portConstraint=eastwest;" vertex="1" parent="fQTumMXNS3Mo2PDMPsu8-189">
          <mxGeometry y="30" width="180" height="30" as="geometry" />
        </mxCell>
        <mxCell id="fQTumMXNS3Mo2PDMPsu8-191" value="PK" style="shape=partialRectangle;connectable=0;fillColor=none;top=0;left=0;bottom=0;right=0;fontStyle=1;overflow=hidden;" vertex="1" parent="fQTumMXNS3Mo2PDMPsu8-190">
          <mxGeometry width="30" height="30" as="geometry" />
        </mxCell>
        <mxCell id="fQTumMXNS3Mo2PDMPsu8-192" value="UniqueID" style="shape=partialRectangle;connectable=0;fillColor=none;top=0;left=0;bottom=0;right=0;align=left;spacingLeft=6;fontStyle=5;overflow=hidden;" vertex="1" parent="fQTumMXNS3Mo2PDMPsu8-190">
          <mxGeometry x="30" width="150" height="30" as="geometry" />
        </mxCell>
        <mxCell id="fQTumMXNS3Mo2PDMPsu8-193" value="" style="shape=partialRectangle;collapsible=0;dropTarget=0;pointerEvents=0;fillColor=none;top=0;left=0;bottom=0;right=0;points=[[0,0.5],[1,0.5]];portConstraint=eastwest;" vertex="1" parent="fQTumMXNS3Mo2PDMPsu8-189">
          <mxGeometry y="60" width="180" height="30" as="geometry" />
        </mxCell>
        <mxCell id="fQTumMXNS3Mo2PDMPsu8-194" value="" style="shape=partialRectangle;connectable=0;fillColor=none;top=0;left=0;bottom=0;right=0;editable=1;overflow=hidden;" vertex="1" parent="fQTumMXNS3Mo2PDMPsu8-193">
          <mxGeometry width="30" height="30" as="geometry" />
        </mxCell>
        <mxCell id="fQTumMXNS3Mo2PDMPsu8-195" value="Row 1" style="shape=partialRectangle;connectable=0;fillColor=none;top=0;left=0;bottom=0;right=0;align=left;spacingLeft=6;overflow=hidden;" vertex="1" parent="fQTumMXNS3Mo2PDMPsu8-193">
          <mxGeometry x="30" width="150" height="30" as="geometry" />
        </mxCell>
        <mxCell id="fQTumMXNS3Mo2PDMPsu8-196" value="" style="shape=partialRectangle;collapsible=0;dropTarget=0;pointerEvents=0;fillColor=none;top=0;left=0;bottom=0;right=0;points=[[0,0.5],[1,0.5]];portConstraint=eastwest;" vertex="1" parent="fQTumMXNS3Mo2PDMPsu8-189">
          <mxGeometry y="90" width="180" height="30" as="geometry" />
        </mxCell>
        <mxCell id="fQTumMXNS3Mo2PDMPsu8-197" value="" style="shape=partialRectangle;connectable=0;fillColor=none;top=0;left=0;bottom=0;right=0;editable=1;overflow=hidden;" vertex="1" parent="fQTumMXNS3Mo2PDMPsu8-196">
          <mxGeometry width="30" height="30" as="geometry" />
        </mxCell>
        <mxCell id="fQTumMXNS3Mo2PDMPsu8-198" value="Row 2" style="shape=partialRectangle;connectable=0;fillColor=none;top=0;left=0;bottom=0;right=0;align=left;spacingLeft=6;overflow=hidden;" vertex="1" parent="fQTumMXNS3Mo2PDMPsu8-196">
          <mxGeometry x="30" width="150" height="30" as="geometry" />
        </mxCell>
        <mxCell id="fQTumMXNS3Mo2PDMPsu8-199" value="" style="shape=partialRectangle;collapsible=0;dropTarget=0;pointerEvents=0;fillColor=none;top=0;left=0;bottom=0;right=0;points=[[0,0.5],[1,0.5]];portConstraint=eastwest;" vertex="1" parent="fQTumMXNS3Mo2PDMPsu8-189">
          <mxGeometry y="120" width="180" height="30" as="geometry" />
        </mxCell>
        <mxCell id="fQTumMXNS3Mo2PDMPsu8-200" value="" style="shape=partialRectangle;connectable=0;fillColor=none;top=0;left=0;bottom=0;right=0;editable=1;overflow=hidden;" vertex="1" parent="fQTumMXNS3Mo2PDMPsu8-199">
          <mxGeometry width="30" height="30" as="geometry" />
        </mxCell>
        <mxCell id="fQTumMXNS3Mo2PDMPsu8-201" value="Row 3" style="shape=partialRectangle;connectable=0;fillColor=none;top=0;left=0;bottom=0;right=0;align=left;spacingLeft=6;overflow=hidden;" vertex="1" parent="fQTumMXNS3Mo2PDMPsu8-199">
          <mxGeometry x="30" width="150" height="30" as="geometry" />
        </mxCell>
        <mxCell id="fQTumMXNS3Mo2PDMPsu8-202" value="Action" style="shape=table;startSize=30;container=1;collapsible=1;childLayout=tableLayout;fixedRows=1;rowLines=0;fontStyle=1;align=center;resizeLast=1;" vertex="1" parent="1">
          <mxGeometry x="570" y="-1080" width="180" height="160" as="geometry" />
        </mxCell>
        <mxCell id="fQTumMXNS3Mo2PDMPsu8-203" value="" style="shape=partialRectangle;collapsible=0;dropTarget=0;pointerEvents=0;fillColor=none;top=0;left=0;bottom=1;right=0;points=[[0,0.5],[1,0.5]];portConstraint=eastwest;" vertex="1" parent="fQTumMXNS3Mo2PDMPsu8-202">
          <mxGeometry y="30" width="180" height="30" as="geometry" />
        </mxCell>
        <mxCell id="fQTumMXNS3Mo2PDMPsu8-204" value="PK" style="shape=partialRectangle;connectable=0;fillColor=none;top=0;left=0;bottom=0;right=0;fontStyle=1;overflow=hidden;" vertex="1" parent="fQTumMXNS3Mo2PDMPsu8-203">
          <mxGeometry width="30" height="30" as="geometry" />
        </mxCell>
        <mxCell id="fQTumMXNS3Mo2PDMPsu8-205" value="UniqueID" style="shape=partialRectangle;connectable=0;fillColor=none;top=0;left=0;bottom=0;right=0;align=left;spacingLeft=6;fontStyle=5;overflow=hidden;" vertex="1" parent="fQTumMXNS3Mo2PDMPsu8-203">
          <mxGeometry x="30" width="150" height="30" as="geometry" />
        </mxCell>
        <mxCell id="fQTumMXNS3Mo2PDMPsu8-206" value="" style="shape=partialRectangle;collapsible=0;dropTarget=0;pointerEvents=0;fillColor=none;top=0;left=0;bottom=0;right=0;points=[[0,0.5],[1,0.5]];portConstraint=eastwest;" vertex="1" parent="fQTumMXNS3Mo2PDMPsu8-202">
          <mxGeometry y="60" width="180" height="30" as="geometry" />
        </mxCell>
        <mxCell id="fQTumMXNS3Mo2PDMPsu8-207" value="" style="shape=partialRectangle;connectable=0;fillColor=none;top=0;left=0;bottom=0;right=0;editable=1;overflow=hidden;" vertex="1" parent="fQTumMXNS3Mo2PDMPsu8-206">
          <mxGeometry width="30" height="30" as="geometry" />
        </mxCell>
        <mxCell id="fQTumMXNS3Mo2PDMPsu8-208" value="Row 1" style="shape=partialRectangle;connectable=0;fillColor=none;top=0;left=0;bottom=0;right=0;align=left;spacingLeft=6;overflow=hidden;" vertex="1" parent="fQTumMXNS3Mo2PDMPsu8-206">
          <mxGeometry x="30" width="150" height="30" as="geometry" />
        </mxCell>
        <mxCell id="fQTumMXNS3Mo2PDMPsu8-209" value="" style="shape=partialRectangle;collapsible=0;dropTarget=0;pointerEvents=0;fillColor=none;top=0;left=0;bottom=0;right=0;points=[[0,0.5],[1,0.5]];portConstraint=eastwest;" vertex="1" parent="fQTumMXNS3Mo2PDMPsu8-202">
          <mxGeometry y="90" width="180" height="30" as="geometry" />
        </mxCell>
        <mxCell id="fQTumMXNS3Mo2PDMPsu8-210" value="" style="shape=partialRectangle;connectable=0;fillColor=none;top=0;left=0;bottom=0;right=0;editable=1;overflow=hidden;" vertex="1" parent="fQTumMXNS3Mo2PDMPsu8-209">
          <mxGeometry width="30" height="30" as="geometry" />
        </mxCell>
        <mxCell id="fQTumMXNS3Mo2PDMPsu8-211" value="Row 2" style="shape=partialRectangle;connectable=0;fillColor=none;top=0;left=0;bottom=0;right=0;align=left;spacingLeft=6;overflow=hidden;" vertex="1" parent="fQTumMXNS3Mo2PDMPsu8-209">
          <mxGeometry x="30" width="150" height="30" as="geometry" />
        </mxCell>
        <mxCell id="fQTumMXNS3Mo2PDMPsu8-212" value="" style="shape=partialRectangle;collapsible=0;dropTarget=0;pointerEvents=0;fillColor=none;top=0;left=0;bottom=0;right=0;points=[[0,0.5],[1,0.5]];portConstraint=eastwest;" vertex="1" parent="fQTumMXNS3Mo2PDMPsu8-202">
          <mxGeometry y="120" width="180" height="30" as="geometry" />
        </mxCell>
        <mxCell id="fQTumMXNS3Mo2PDMPsu8-213" value="" style="shape=partialRectangle;connectable=0;fillColor=none;top=0;left=0;bottom=0;right=0;editable=1;overflow=hidden;" vertex="1" parent="fQTumMXNS3Mo2PDMPsu8-212">
          <mxGeometry width="30" height="30" as="geometry" />
        </mxCell>
        <mxCell id="fQTumMXNS3Mo2PDMPsu8-214" value="Row 3" style="shape=partialRectangle;connectable=0;fillColor=none;top=0;left=0;bottom=0;right=0;align=left;spacingLeft=6;overflow=hidden;" vertex="1" parent="fQTumMXNS3Mo2PDMPsu8-212">
          <mxGeometry x="30" width="150" height="30" as="geometry" />
        </mxCell>
        <mxCell id="fQTumMXNS3Mo2PDMPsu8-215" value="Status" style="shape=table;startSize=30;container=1;collapsible=1;childLayout=tableLayout;fixedRows=1;rowLines=0;fontStyle=1;align=center;resizeLast=1;" vertex="1" parent="1">
          <mxGeometry x="570" y="-890" width="180" height="160" as="geometry" />
        </mxCell>
        <mxCell id="fQTumMXNS3Mo2PDMPsu8-216" value="" style="shape=partialRectangle;collapsible=0;dropTarget=0;pointerEvents=0;fillColor=none;top=0;left=0;bottom=1;right=0;points=[[0,0.5],[1,0.5]];portConstraint=eastwest;" vertex="1" parent="fQTumMXNS3Mo2PDMPsu8-215">
          <mxGeometry y="30" width="180" height="30" as="geometry" />
        </mxCell>
        <mxCell id="fQTumMXNS3Mo2PDMPsu8-217" value="PK" style="shape=partialRectangle;connectable=0;fillColor=none;top=0;left=0;bottom=0;right=0;fontStyle=1;overflow=hidden;" vertex="1" parent="fQTumMXNS3Mo2PDMPsu8-216">
          <mxGeometry width="30" height="30" as="geometry" />
        </mxCell>
        <mxCell id="fQTumMXNS3Mo2PDMPsu8-218" value="UniqueID" style="shape=partialRectangle;connectable=0;fillColor=none;top=0;left=0;bottom=0;right=0;align=left;spacingLeft=6;fontStyle=5;overflow=hidden;" vertex="1" parent="fQTumMXNS3Mo2PDMPsu8-216">
          <mxGeometry x="30" width="150" height="30" as="geometry" />
        </mxCell>
        <mxCell id="fQTumMXNS3Mo2PDMPsu8-219" value="" style="shape=partialRectangle;collapsible=0;dropTarget=0;pointerEvents=0;fillColor=none;top=0;left=0;bottom=0;right=0;points=[[0,0.5],[1,0.5]];portConstraint=eastwest;" vertex="1" parent="fQTumMXNS3Mo2PDMPsu8-215">
          <mxGeometry y="60" width="180" height="30" as="geometry" />
        </mxCell>
        <mxCell id="fQTumMXNS3Mo2PDMPsu8-220" value="" style="shape=partialRectangle;connectable=0;fillColor=none;top=0;left=0;bottom=0;right=0;editable=1;overflow=hidden;" vertex="1" parent="fQTumMXNS3Mo2PDMPsu8-219">
          <mxGeometry width="30" height="30" as="geometry" />
        </mxCell>
        <mxCell id="fQTumMXNS3Mo2PDMPsu8-221" value="Row 1" style="shape=partialRectangle;connectable=0;fillColor=none;top=0;left=0;bottom=0;right=0;align=left;spacingLeft=6;overflow=hidden;" vertex="1" parent="fQTumMXNS3Mo2PDMPsu8-219">
          <mxGeometry x="30" width="150" height="30" as="geometry" />
        </mxCell>
        <mxCell id="fQTumMXNS3Mo2PDMPsu8-222" value="" style="shape=partialRectangle;collapsible=0;dropTarget=0;pointerEvents=0;fillColor=none;top=0;left=0;bottom=0;right=0;points=[[0,0.5],[1,0.5]];portConstraint=eastwest;" vertex="1" parent="fQTumMXNS3Mo2PDMPsu8-215">
          <mxGeometry y="90" width="180" height="30" as="geometry" />
        </mxCell>
        <mxCell id="fQTumMXNS3Mo2PDMPsu8-223" value="" style="shape=partialRectangle;connectable=0;fillColor=none;top=0;left=0;bottom=0;right=0;editable=1;overflow=hidden;" vertex="1" parent="fQTumMXNS3Mo2PDMPsu8-222">
          <mxGeometry width="30" height="30" as="geometry" />
        </mxCell>
        <mxCell id="fQTumMXNS3Mo2PDMPsu8-224" value="Row 2" style="shape=partialRectangle;connectable=0;fillColor=none;top=0;left=0;bottom=0;right=0;align=left;spacingLeft=6;overflow=hidden;" vertex="1" parent="fQTumMXNS3Mo2PDMPsu8-222">
          <mxGeometry x="30" width="150" height="30" as="geometry" />
        </mxCell>
        <mxCell id="fQTumMXNS3Mo2PDMPsu8-225" value="" style="shape=partialRectangle;collapsible=0;dropTarget=0;pointerEvents=0;fillColor=none;top=0;left=0;bottom=0;right=0;points=[[0,0.5],[1,0.5]];portConstraint=eastwest;" vertex="1" parent="fQTumMXNS3Mo2PDMPsu8-215">
          <mxGeometry y="120" width="180" height="30" as="geometry" />
        </mxCell>
        <mxCell id="fQTumMXNS3Mo2PDMPsu8-226" value="" style="shape=partialRectangle;connectable=0;fillColor=none;top=0;left=0;bottom=0;right=0;editable=1;overflow=hidden;" vertex="1" parent="fQTumMXNS3Mo2PDMPsu8-225">
          <mxGeometry width="30" height="30" as="geometry" />
        </mxCell>
        <mxCell id="fQTumMXNS3Mo2PDMPsu8-227" value="Row 3" style="shape=partialRectangle;connectable=0;fillColor=none;top=0;left=0;bottom=0;right=0;align=left;spacingLeft=6;overflow=hidden;" vertex="1" parent="fQTumMXNS3Mo2PDMPsu8-225">
          <mxGeometry x="30" width="150" height="30" as="geometry" />
        </mxCell>
        <mxCell id="fQTumMXNS3Mo2PDMPsu8-228" value="Role" style="shape=table;startSize=30;container=1;collapsible=1;childLayout=tableLayout;fixedRows=1;rowLines=0;fontStyle=1;align=center;resizeLast=1;" vertex="1" parent="1">
          <mxGeometry x="354" y="-690" width="180" height="160" as="geometry" />
        </mxCell>
        <mxCell id="fQTumMXNS3Mo2PDMPsu8-229" value="" style="shape=partialRectangle;collapsible=0;dropTarget=0;pointerEvents=0;fillColor=none;top=0;left=0;bottom=1;right=0;points=[[0,0.5],[1,0.5]];portConstraint=eastwest;" vertex="1" parent="fQTumMXNS3Mo2PDMPsu8-228">
          <mxGeometry y="30" width="180" height="30" as="geometry" />
        </mxCell>
        <mxCell id="fQTumMXNS3Mo2PDMPsu8-230" value="PK" style="shape=partialRectangle;connectable=0;fillColor=none;top=0;left=0;bottom=0;right=0;fontStyle=1;overflow=hidden;" vertex="1" parent="fQTumMXNS3Mo2PDMPsu8-229">
          <mxGeometry width="30" height="30" as="geometry" />
        </mxCell>
        <mxCell id="fQTumMXNS3Mo2PDMPsu8-231" value="UniqueID" style="shape=partialRectangle;connectable=0;fillColor=none;top=0;left=0;bottom=0;right=0;align=left;spacingLeft=6;fontStyle=5;overflow=hidden;" vertex="1" parent="fQTumMXNS3Mo2PDMPsu8-229">
          <mxGeometry x="30" width="150" height="30" as="geometry" />
        </mxCell>
        <mxCell id="fQTumMXNS3Mo2PDMPsu8-232" value="" style="shape=partialRectangle;collapsible=0;dropTarget=0;pointerEvents=0;fillColor=none;top=0;left=0;bottom=0;right=0;points=[[0,0.5],[1,0.5]];portConstraint=eastwest;" vertex="1" parent="fQTumMXNS3Mo2PDMPsu8-228">
          <mxGeometry y="60" width="180" height="30" as="geometry" />
        </mxCell>
        <mxCell id="fQTumMXNS3Mo2PDMPsu8-233" value="" style="shape=partialRectangle;connectable=0;fillColor=none;top=0;left=0;bottom=0;right=0;editable=1;overflow=hidden;" vertex="1" parent="fQTumMXNS3Mo2PDMPsu8-232">
          <mxGeometry width="30" height="30" as="geometry" />
        </mxCell>
        <mxCell id="fQTumMXNS3Mo2PDMPsu8-234" value="Row 1" style="shape=partialRectangle;connectable=0;fillColor=none;top=0;left=0;bottom=0;right=0;align=left;spacingLeft=6;overflow=hidden;" vertex="1" parent="fQTumMXNS3Mo2PDMPsu8-232">
          <mxGeometry x="30" width="150" height="30" as="geometry" />
        </mxCell>
        <mxCell id="fQTumMXNS3Mo2PDMPsu8-235" value="" style="shape=partialRectangle;collapsible=0;dropTarget=0;pointerEvents=0;fillColor=none;top=0;left=0;bottom=0;right=0;points=[[0,0.5],[1,0.5]];portConstraint=eastwest;" vertex="1" parent="fQTumMXNS3Mo2PDMPsu8-228">
          <mxGeometry y="90" width="180" height="30" as="geometry" />
        </mxCell>
        <mxCell id="fQTumMXNS3Mo2PDMPsu8-236" value="" style="shape=partialRectangle;connectable=0;fillColor=none;top=0;left=0;bottom=0;right=0;editable=1;overflow=hidden;" vertex="1" parent="fQTumMXNS3Mo2PDMPsu8-235">
          <mxGeometry width="30" height="30" as="geometry" />
        </mxCell>
        <mxCell id="fQTumMXNS3Mo2PDMPsu8-237" value="Row 2" style="shape=partialRectangle;connectable=0;fillColor=none;top=0;left=0;bottom=0;right=0;align=left;spacingLeft=6;overflow=hidden;" vertex="1" parent="fQTumMXNS3Mo2PDMPsu8-235">
          <mxGeometry x="30" width="150" height="30" as="geometry" />
        </mxCell>
        <mxCell id="fQTumMXNS3Mo2PDMPsu8-238" value="" style="shape=partialRectangle;collapsible=0;dropTarget=0;pointerEvents=0;fillColor=none;top=0;left=0;bottom=0;right=0;points=[[0,0.5],[1,0.5]];portConstraint=eastwest;" vertex="1" parent="fQTumMXNS3Mo2PDMPsu8-228">
          <mxGeometry y="120" width="180" height="30" as="geometry" />
        </mxCell>
        <mxCell id="fQTumMXNS3Mo2PDMPsu8-239" value="" style="shape=partialRectangle;connectable=0;fillColor=none;top=0;left=0;bottom=0;right=0;editable=1;overflow=hidden;" vertex="1" parent="fQTumMXNS3Mo2PDMPsu8-238">
          <mxGeometry width="30" height="30" as="geometry" />
        </mxCell>
        <mxCell id="fQTumMXNS3Mo2PDMPsu8-240" value="Row 3" style="shape=partialRectangle;connectable=0;fillColor=none;top=0;left=0;bottom=0;right=0;align=left;spacingLeft=6;overflow=hidden;" vertex="1" parent="fQTumMXNS3Mo2PDMPsu8-238">
          <mxGeometry x="30" width="150" height="30" as="geometry" />
        </mxCell>
        <mxCell id="fQTumMXNS3Mo2PDMPsu8-241" value="User" style="shape=table;startSize=30;container=1;collapsible=1;childLayout=tableLayout;fixedRows=1;rowLines=0;fontStyle=1;align=center;resizeLast=1;" vertex="1" parent="1">
          <mxGeometry x="570" y="-690" width="180" height="160" as="geometry" />
        </mxCell>
        <mxCell id="fQTumMXNS3Mo2PDMPsu8-242" value="" style="shape=partialRectangle;collapsible=0;dropTarget=0;pointerEvents=0;fillColor=none;top=0;left=0;bottom=1;right=0;points=[[0,0.5],[1,0.5]];portConstraint=eastwest;" vertex="1" parent="fQTumMXNS3Mo2PDMPsu8-241">
          <mxGeometry y="30" width="180" height="30" as="geometry" />
        </mxCell>
        <mxCell id="fQTumMXNS3Mo2PDMPsu8-243" value="PK" style="shape=partialRectangle;connectable=0;fillColor=none;top=0;left=0;bottom=0;right=0;fontStyle=1;overflow=hidden;" vertex="1" parent="fQTumMXNS3Mo2PDMPsu8-242">
          <mxGeometry width="30" height="30" as="geometry" />
        </mxCell>
        <mxCell id="fQTumMXNS3Mo2PDMPsu8-244" value="UniqueID" style="shape=partialRectangle;connectable=0;fillColor=none;top=0;left=0;bottom=0;right=0;align=left;spacingLeft=6;fontStyle=5;overflow=hidden;" vertex="1" parent="fQTumMXNS3Mo2PDMPsu8-242">
          <mxGeometry x="30" width="150" height="30" as="geometry" />
        </mxCell>
        <mxCell id="fQTumMXNS3Mo2PDMPsu8-245" value="" style="shape=partialRectangle;collapsible=0;dropTarget=0;pointerEvents=0;fillColor=none;top=0;left=0;bottom=0;right=0;points=[[0,0.5],[1,0.5]];portConstraint=eastwest;" vertex="1" parent="fQTumMXNS3Mo2PDMPsu8-241">
          <mxGeometry y="60" width="180" height="30" as="geometry" />
        </mxCell>
        <mxCell id="fQTumMXNS3Mo2PDMPsu8-246" value="" style="shape=partialRectangle;connectable=0;fillColor=none;top=0;left=0;bottom=0;right=0;editable=1;overflow=hidden;" vertex="1" parent="fQTumMXNS3Mo2PDMPsu8-245">
          <mxGeometry width="30" height="30" as="geometry" />
        </mxCell>
        <mxCell id="fQTumMXNS3Mo2PDMPsu8-247" value="Row 1" style="shape=partialRectangle;connectable=0;fillColor=none;top=0;left=0;bottom=0;right=0;align=left;spacingLeft=6;overflow=hidden;" vertex="1" parent="fQTumMXNS3Mo2PDMPsu8-245">
          <mxGeometry x="30" width="150" height="30" as="geometry" />
        </mxCell>
        <mxCell id="fQTumMXNS3Mo2PDMPsu8-248" value="" style="shape=partialRectangle;collapsible=0;dropTarget=0;pointerEvents=0;fillColor=none;top=0;left=0;bottom=0;right=0;points=[[0,0.5],[1,0.5]];portConstraint=eastwest;" vertex="1" parent="fQTumMXNS3Mo2PDMPsu8-241">
          <mxGeometry y="90" width="180" height="30" as="geometry" />
        </mxCell>
        <mxCell id="fQTumMXNS3Mo2PDMPsu8-249" value="" style="shape=partialRectangle;connectable=0;fillColor=none;top=0;left=0;bottom=0;right=0;editable=1;overflow=hidden;" vertex="1" parent="fQTumMXNS3Mo2PDMPsu8-248">
          <mxGeometry width="30" height="30" as="geometry" />
        </mxCell>
        <mxCell id="fQTumMXNS3Mo2PDMPsu8-250" value="Row 2" style="shape=partialRectangle;connectable=0;fillColor=none;top=0;left=0;bottom=0;right=0;align=left;spacingLeft=6;overflow=hidden;" vertex="1" parent="fQTumMXNS3Mo2PDMPsu8-248">
          <mxGeometry x="30" width="150" height="30" as="geometry" />
        </mxCell>
        <mxCell id="fQTumMXNS3Mo2PDMPsu8-251" value="" style="shape=partialRectangle;collapsible=0;dropTarget=0;pointerEvents=0;fillColor=none;top=0;left=0;bottom=0;right=0;points=[[0,0.5],[1,0.5]];portConstraint=eastwest;" vertex="1" parent="fQTumMXNS3Mo2PDMPsu8-241">
          <mxGeometry y="120" width="180" height="30" as="geometry" />
        </mxCell>
        <mxCell id="fQTumMXNS3Mo2PDMPsu8-252" value="" style="shape=partialRectangle;connectable=0;fillColor=none;top=0;left=0;bottom=0;right=0;editable=1;overflow=hidden;" vertex="1" parent="fQTumMXNS3Mo2PDMPsu8-251">
          <mxGeometry width="30" height="30" as="geometry" />
        </mxCell>
        <mxCell id="fQTumMXNS3Mo2PDMPsu8-253" value="Row 3" style="shape=partialRectangle;connectable=0;fillColor=none;top=0;left=0;bottom=0;right=0;align=left;spacingLeft=6;overflow=hidden;" vertex="1" parent="fQTumMXNS3Mo2PDMPsu8-251">
          <mxGeometry x="30" width="150" height="30" as="geometry" />
        </mxCell>
        <mxCell id="fQTumMXNS3Mo2PDMPsu8-254" value="StatusLog" style="shape=table;startSize=30;container=1;collapsible=1;childLayout=tableLayout;fixedRows=1;rowLines=0;fontStyle=1;align=center;resizeLast=1;" vertex="1" parent="1">
          <mxGeometry x="523" y="220" width="180" height="160" as="geometry" />
        </mxCell>
        <mxCell id="fQTumMXNS3Mo2PDMPsu8-255" value="" style="shape=partialRectangle;collapsible=0;dropTarget=0;pointerEvents=0;fillColor=none;top=0;left=0;bottom=1;right=0;points=[[0,0.5],[1,0.5]];portConstraint=eastwest;" vertex="1" parent="fQTumMXNS3Mo2PDMPsu8-254">
          <mxGeometry y="30" width="180" height="30" as="geometry" />
        </mxCell>
        <mxCell id="fQTumMXNS3Mo2PDMPsu8-256" value="PK" style="shape=partialRectangle;connectable=0;fillColor=none;top=0;left=0;bottom=0;right=0;fontStyle=1;overflow=hidden;" vertex="1" parent="fQTumMXNS3Mo2PDMPsu8-255">
          <mxGeometry width="30" height="30" as="geometry" />
        </mxCell>
        <mxCell id="fQTumMXNS3Mo2PDMPsu8-257" value="UniqueID" style="shape=partialRectangle;connectable=0;fillColor=none;top=0;left=0;bottom=0;right=0;align=left;spacingLeft=6;fontStyle=5;overflow=hidden;" vertex="1" parent="fQTumMXNS3Mo2PDMPsu8-255">
          <mxGeometry x="30" width="150" height="30" as="geometry" />
        </mxCell>
        <mxCell id="fQTumMXNS3Mo2PDMPsu8-258" value="" style="shape=partialRectangle;collapsible=0;dropTarget=0;pointerEvents=0;fillColor=none;top=0;left=0;bottom=0;right=0;points=[[0,0.5],[1,0.5]];portConstraint=eastwest;" vertex="1" parent="fQTumMXNS3Mo2PDMPsu8-254">
          <mxGeometry y="60" width="180" height="30" as="geometry" />
        </mxCell>
        <mxCell id="fQTumMXNS3Mo2PDMPsu8-259" value="" style="shape=partialRectangle;connectable=0;fillColor=none;top=0;left=0;bottom=0;right=0;editable=1;overflow=hidden;" vertex="1" parent="fQTumMXNS3Mo2PDMPsu8-258">
          <mxGeometry width="30" height="30" as="geometry" />
        </mxCell>
        <mxCell id="fQTumMXNS3Mo2PDMPsu8-260" value="Row 1" style="shape=partialRectangle;connectable=0;fillColor=none;top=0;left=0;bottom=0;right=0;align=left;spacingLeft=6;overflow=hidden;" vertex="1" parent="fQTumMXNS3Mo2PDMPsu8-258">
          <mxGeometry x="30" width="150" height="30" as="geometry" />
        </mxCell>
        <mxCell id="fQTumMXNS3Mo2PDMPsu8-261" value="" style="shape=partialRectangle;collapsible=0;dropTarget=0;pointerEvents=0;fillColor=none;top=0;left=0;bottom=0;right=0;points=[[0,0.5],[1,0.5]];portConstraint=eastwest;" vertex="1" parent="fQTumMXNS3Mo2PDMPsu8-254">
          <mxGeometry y="90" width="180" height="30" as="geometry" />
        </mxCell>
        <mxCell id="fQTumMXNS3Mo2PDMPsu8-262" value="" style="shape=partialRectangle;connectable=0;fillColor=none;top=0;left=0;bottom=0;right=0;editable=1;overflow=hidden;" vertex="1" parent="fQTumMXNS3Mo2PDMPsu8-261">
          <mxGeometry width="30" height="30" as="geometry" />
        </mxCell>
        <mxCell id="fQTumMXNS3Mo2PDMPsu8-263" value="Row 2" style="shape=partialRectangle;connectable=0;fillColor=none;top=0;left=0;bottom=0;right=0;align=left;spacingLeft=6;overflow=hidden;" vertex="1" parent="fQTumMXNS3Mo2PDMPsu8-261">
          <mxGeometry x="30" width="150" height="30" as="geometry" />
        </mxCell>
        <mxCell id="fQTumMXNS3Mo2PDMPsu8-264" value="" style="shape=partialRectangle;collapsible=0;dropTarget=0;pointerEvents=0;fillColor=none;top=0;left=0;bottom=0;right=0;points=[[0,0.5],[1,0.5]];portConstraint=eastwest;" vertex="1" parent="fQTumMXNS3Mo2PDMPsu8-254">
          <mxGeometry y="120" width="180" height="30" as="geometry" />
        </mxCell>
        <mxCell id="fQTumMXNS3Mo2PDMPsu8-265" value="" style="shape=partialRectangle;connectable=0;fillColor=none;top=0;left=0;bottom=0;right=0;editable=1;overflow=hidden;" vertex="1" parent="fQTumMXNS3Mo2PDMPsu8-264">
          <mxGeometry width="30" height="30" as="geometry" />
        </mxCell>
        <mxCell id="fQTumMXNS3Mo2PDMPsu8-266" value="Row 3" style="shape=partialRectangle;connectable=0;fillColor=none;top=0;left=0;bottom=0;right=0;align=left;spacingLeft=6;overflow=hidden;" vertex="1" parent="fQTumMXNS3Mo2PDMPsu8-264">
          <mxGeometry x="30" width="150" height="30" as="geometry" />
        </mxCell>
        <mxCell id="fQTumMXNS3Mo2PDMPsu8-267" value="ExecuteLog" style="shape=table;startSize=30;container=1;collapsible=1;childLayout=tableLayout;fixedRows=1;rowLines=0;fontStyle=1;align=center;resizeLast=1;" vertex="1" parent="1">
          <mxGeometry x="90" y="410" width="180" height="160" as="geometry" />
        </mxCell>
        <mxCell id="fQTumMXNS3Mo2PDMPsu8-268" value="" style="shape=partialRectangle;collapsible=0;dropTarget=0;pointerEvents=0;fillColor=none;top=0;left=0;bottom=1;right=0;points=[[0,0.5],[1,0.5]];portConstraint=eastwest;" vertex="1" parent="fQTumMXNS3Mo2PDMPsu8-267">
          <mxGeometry y="30" width="180" height="30" as="geometry" />
        </mxCell>
        <mxCell id="fQTumMXNS3Mo2PDMPsu8-269" value="PK" style="shape=partialRectangle;connectable=0;fillColor=none;top=0;left=0;bottom=0;right=0;fontStyle=1;overflow=hidden;" vertex="1" parent="fQTumMXNS3Mo2PDMPsu8-268">
          <mxGeometry width="30" height="30" as="geometry" />
        </mxCell>
        <mxCell id="fQTumMXNS3Mo2PDMPsu8-270" value="UniqueID" style="shape=partialRectangle;connectable=0;fillColor=none;top=0;left=0;bottom=0;right=0;align=left;spacingLeft=6;fontStyle=5;overflow=hidden;" vertex="1" parent="fQTumMXNS3Mo2PDMPsu8-268">
          <mxGeometry x="30" width="150" height="30" as="geometry" />
        </mxCell>
        <mxCell id="fQTumMXNS3Mo2PDMPsu8-271" value="" style="shape=partialRectangle;collapsible=0;dropTarget=0;pointerEvents=0;fillColor=none;top=0;left=0;bottom=0;right=0;points=[[0,0.5],[1,0.5]];portConstraint=eastwest;" vertex="1" parent="fQTumMXNS3Mo2PDMPsu8-267">
          <mxGeometry y="60" width="180" height="30" as="geometry" />
        </mxCell>
        <mxCell id="fQTumMXNS3Mo2PDMPsu8-272" value="" style="shape=partialRectangle;connectable=0;fillColor=none;top=0;left=0;bottom=0;right=0;editable=1;overflow=hidden;" vertex="1" parent="fQTumMXNS3Mo2PDMPsu8-271">
          <mxGeometry width="30" height="30" as="geometry" />
        </mxCell>
        <mxCell id="fQTumMXNS3Mo2PDMPsu8-273" value="Row 1" style="shape=partialRectangle;connectable=0;fillColor=none;top=0;left=0;bottom=0;right=0;align=left;spacingLeft=6;overflow=hidden;" vertex="1" parent="fQTumMXNS3Mo2PDMPsu8-271">
          <mxGeometry x="30" width="150" height="30" as="geometry" />
        </mxCell>
        <mxCell id="fQTumMXNS3Mo2PDMPsu8-274" value="" style="shape=partialRectangle;collapsible=0;dropTarget=0;pointerEvents=0;fillColor=none;top=0;left=0;bottom=0;right=0;points=[[0,0.5],[1,0.5]];portConstraint=eastwest;" vertex="1" parent="fQTumMXNS3Mo2PDMPsu8-267">
          <mxGeometry y="90" width="180" height="30" as="geometry" />
        </mxCell>
        <mxCell id="fQTumMXNS3Mo2PDMPsu8-275" value="" style="shape=partialRectangle;connectable=0;fillColor=none;top=0;left=0;bottom=0;right=0;editable=1;overflow=hidden;" vertex="1" parent="fQTumMXNS3Mo2PDMPsu8-274">
          <mxGeometry width="30" height="30" as="geometry" />
        </mxCell>
        <mxCell id="fQTumMXNS3Mo2PDMPsu8-276" value="Row 2" style="shape=partialRectangle;connectable=0;fillColor=none;top=0;left=0;bottom=0;right=0;align=left;spacingLeft=6;overflow=hidden;" vertex="1" parent="fQTumMXNS3Mo2PDMPsu8-274">
          <mxGeometry x="30" width="150" height="30" as="geometry" />
        </mxCell>
        <mxCell id="fQTumMXNS3Mo2PDMPsu8-277" value="" style="shape=partialRectangle;collapsible=0;dropTarget=0;pointerEvents=0;fillColor=none;top=0;left=0;bottom=0;right=0;points=[[0,0.5],[1,0.5]];portConstraint=eastwest;" vertex="1" parent="fQTumMXNS3Mo2PDMPsu8-267">
          <mxGeometry y="120" width="180" height="30" as="geometry" />
        </mxCell>
        <mxCell id="fQTumMXNS3Mo2PDMPsu8-278" value="" style="shape=partialRectangle;connectable=0;fillColor=none;top=0;left=0;bottom=0;right=0;editable=1;overflow=hidden;" vertex="1" parent="fQTumMXNS3Mo2PDMPsu8-277">
          <mxGeometry width="30" height="30" as="geometry" />
        </mxCell>
        <mxCell id="fQTumMXNS3Mo2PDMPsu8-279" value="Row 3" style="shape=partialRectangle;connectable=0;fillColor=none;top=0;left=0;bottom=0;right=0;align=left;spacingLeft=6;overflow=hidden;" vertex="1" parent="fQTumMXNS3Mo2PDMPsu8-277">
          <mxGeometry x="30" width="150" height="30" as="geometry" />
        </mxCell>
        <mxCell id="fQTumMXNS3Mo2PDMPsu8-280" value="Order" style="shape=table;startSize=30;container=1;collapsible=1;childLayout=tableLayout;fixedRows=1;rowLines=0;fontStyle=1;align=center;resizeLast=1;" vertex="1" parent="1">
          <mxGeometry x="89" y="720" width="180" height="160" as="geometry" />
        </mxCell>
        <mxCell id="fQTumMXNS3Mo2PDMPsu8-281" value="" style="shape=partialRectangle;collapsible=0;dropTarget=0;pointerEvents=0;fillColor=none;top=0;left=0;bottom=1;right=0;points=[[0,0.5],[1,0.5]];portConstraint=eastwest;" vertex="1" parent="fQTumMXNS3Mo2PDMPsu8-280">
          <mxGeometry y="30" width="180" height="30" as="geometry" />
        </mxCell>
        <mxCell id="fQTumMXNS3Mo2PDMPsu8-282" value="PK" style="shape=partialRectangle;connectable=0;fillColor=none;top=0;left=0;bottom=0;right=0;fontStyle=1;overflow=hidden;" vertex="1" parent="fQTumMXNS3Mo2PDMPsu8-281">
          <mxGeometry width="30" height="30" as="geometry" />
        </mxCell>
        <mxCell id="fQTumMXNS3Mo2PDMPsu8-283" value="UniqueID" style="shape=partialRectangle;connectable=0;fillColor=none;top=0;left=0;bottom=0;right=0;align=left;spacingLeft=6;fontStyle=5;overflow=hidden;" vertex="1" parent="fQTumMXNS3Mo2PDMPsu8-281">
          <mxGeometry x="30" width="150" height="30" as="geometry" />
        </mxCell>
        <mxCell id="fQTumMXNS3Mo2PDMPsu8-284" value="" style="shape=partialRectangle;collapsible=0;dropTarget=0;pointerEvents=0;fillColor=none;top=0;left=0;bottom=0;right=0;points=[[0,0.5],[1,0.5]];portConstraint=eastwest;" vertex="1" parent="fQTumMXNS3Mo2PDMPsu8-280">
          <mxGeometry y="60" width="180" height="30" as="geometry" />
        </mxCell>
        <mxCell id="fQTumMXNS3Mo2PDMPsu8-285" value="" style="shape=partialRectangle;connectable=0;fillColor=none;top=0;left=0;bottom=0;right=0;editable=1;overflow=hidden;" vertex="1" parent="fQTumMXNS3Mo2PDMPsu8-284">
          <mxGeometry width="30" height="30" as="geometry" />
        </mxCell>
        <mxCell id="fQTumMXNS3Mo2PDMPsu8-286" value="Row 1" style="shape=partialRectangle;connectable=0;fillColor=none;top=0;left=0;bottom=0;right=0;align=left;spacingLeft=6;overflow=hidden;" vertex="1" parent="fQTumMXNS3Mo2PDMPsu8-284">
          <mxGeometry x="30" width="150" height="30" as="geometry" />
        </mxCell>
        <mxCell id="fQTumMXNS3Mo2PDMPsu8-287" value="" style="shape=partialRectangle;collapsible=0;dropTarget=0;pointerEvents=0;fillColor=none;top=0;left=0;bottom=0;right=0;points=[[0,0.5],[1,0.5]];portConstraint=eastwest;" vertex="1" parent="fQTumMXNS3Mo2PDMPsu8-280">
          <mxGeometry y="90" width="180" height="30" as="geometry" />
        </mxCell>
        <mxCell id="fQTumMXNS3Mo2PDMPsu8-288" value="" style="shape=partialRectangle;connectable=0;fillColor=none;top=0;left=0;bottom=0;right=0;editable=1;overflow=hidden;" vertex="1" parent="fQTumMXNS3Mo2PDMPsu8-287">
          <mxGeometry width="30" height="30" as="geometry" />
        </mxCell>
        <mxCell id="fQTumMXNS3Mo2PDMPsu8-289" value="Row 2" style="shape=partialRectangle;connectable=0;fillColor=none;top=0;left=0;bottom=0;right=0;align=left;spacingLeft=6;overflow=hidden;" vertex="1" parent="fQTumMXNS3Mo2PDMPsu8-287">
          <mxGeometry x="30" width="150" height="30" as="geometry" />
        </mxCell>
        <mxCell id="fQTumMXNS3Mo2PDMPsu8-290" value="" style="shape=partialRectangle;collapsible=0;dropTarget=0;pointerEvents=0;fillColor=none;top=0;left=0;bottom=0;right=0;points=[[0,0.5],[1,0.5]];portConstraint=eastwest;" vertex="1" parent="fQTumMXNS3Mo2PDMPsu8-280">
          <mxGeometry y="120" width="180" height="30" as="geometry" />
        </mxCell>
        <mxCell id="fQTumMXNS3Mo2PDMPsu8-291" value="" style="shape=partialRectangle;connectable=0;fillColor=none;top=0;left=0;bottom=0;right=0;editable=1;overflow=hidden;" vertex="1" parent="fQTumMXNS3Mo2PDMPsu8-290">
          <mxGeometry width="30" height="30" as="geometry" />
        </mxCell>
        <mxCell id="fQTumMXNS3Mo2PDMPsu8-292" value="Row 3" style="shape=partialRectangle;connectable=0;fillColor=none;top=0;left=0;bottom=0;right=0;align=left;spacingLeft=6;overflow=hidden;" vertex="1" parent="fQTumMXNS3Mo2PDMPsu8-290">
          <mxGeometry x="30" width="150" height="30" as="geometry" />
        </mxCell>
        <mxCell id="fQTumMXNS3Mo2PDMPsu8-293" value="Role" style="shape=table;startSize=30;container=1;collapsible=1;childLayout=tableLayout;fixedRows=1;rowLines=0;fontStyle=1;align=center;resizeLast=1;" vertex="1" parent="1">
          <mxGeometry x="305" y="720" width="180" height="160" as="geometry" />
        </mxCell>
        <mxCell id="fQTumMXNS3Mo2PDMPsu8-294" value="" style="shape=partialRectangle;collapsible=0;dropTarget=0;pointerEvents=0;fillColor=none;top=0;left=0;bottom=1;right=0;points=[[0,0.5],[1,0.5]];portConstraint=eastwest;" vertex="1" parent="fQTumMXNS3Mo2PDMPsu8-293">
          <mxGeometry y="30" width="180" height="30" as="geometry" />
        </mxCell>
        <mxCell id="fQTumMXNS3Mo2PDMPsu8-295" value="PK" style="shape=partialRectangle;connectable=0;fillColor=none;top=0;left=0;bottom=0;right=0;fontStyle=1;overflow=hidden;" vertex="1" parent="fQTumMXNS3Mo2PDMPsu8-294">
          <mxGeometry width="30" height="30" as="geometry" />
        </mxCell>
        <mxCell id="fQTumMXNS3Mo2PDMPsu8-296" value="UniqueID" style="shape=partialRectangle;connectable=0;fillColor=none;top=0;left=0;bottom=0;right=0;align=left;spacingLeft=6;fontStyle=5;overflow=hidden;" vertex="1" parent="fQTumMXNS3Mo2PDMPsu8-294">
          <mxGeometry x="30" width="150" height="30" as="geometry" />
        </mxCell>
        <mxCell id="fQTumMXNS3Mo2PDMPsu8-297" value="" style="shape=partialRectangle;collapsible=0;dropTarget=0;pointerEvents=0;fillColor=none;top=0;left=0;bottom=0;right=0;points=[[0,0.5],[1,0.5]];portConstraint=eastwest;" vertex="1" parent="fQTumMXNS3Mo2PDMPsu8-293">
          <mxGeometry y="60" width="180" height="30" as="geometry" />
        </mxCell>
        <mxCell id="fQTumMXNS3Mo2PDMPsu8-298" value="" style="shape=partialRectangle;connectable=0;fillColor=none;top=0;left=0;bottom=0;right=0;editable=1;overflow=hidden;" vertex="1" parent="fQTumMXNS3Mo2PDMPsu8-297">
          <mxGeometry width="30" height="30" as="geometry" />
        </mxCell>
        <mxCell id="fQTumMXNS3Mo2PDMPsu8-299" value="Row 1" style="shape=partialRectangle;connectable=0;fillColor=none;top=0;left=0;bottom=0;right=0;align=left;spacingLeft=6;overflow=hidden;" vertex="1" parent="fQTumMXNS3Mo2PDMPsu8-297">
          <mxGeometry x="30" width="150" height="30" as="geometry" />
        </mxCell>
        <mxCell id="fQTumMXNS3Mo2PDMPsu8-300" value="" style="shape=partialRectangle;collapsible=0;dropTarget=0;pointerEvents=0;fillColor=none;top=0;left=0;bottom=0;right=0;points=[[0,0.5],[1,0.5]];portConstraint=eastwest;" vertex="1" parent="fQTumMXNS3Mo2PDMPsu8-293">
          <mxGeometry y="90" width="180" height="30" as="geometry" />
        </mxCell>
        <mxCell id="fQTumMXNS3Mo2PDMPsu8-301" value="" style="shape=partialRectangle;connectable=0;fillColor=none;top=0;left=0;bottom=0;right=0;editable=1;overflow=hidden;" vertex="1" parent="fQTumMXNS3Mo2PDMPsu8-300">
          <mxGeometry width="30" height="30" as="geometry" />
        </mxCell>
        <mxCell id="fQTumMXNS3Mo2PDMPsu8-302" value="Row 2" style="shape=partialRectangle;connectable=0;fillColor=none;top=0;left=0;bottom=0;right=0;align=left;spacingLeft=6;overflow=hidden;" vertex="1" parent="fQTumMXNS3Mo2PDMPsu8-300">
          <mxGeometry x="30" width="150" height="30" as="geometry" />
        </mxCell>
        <mxCell id="fQTumMXNS3Mo2PDMPsu8-303" value="" style="shape=partialRectangle;collapsible=0;dropTarget=0;pointerEvents=0;fillColor=none;top=0;left=0;bottom=0;right=0;points=[[0,0.5],[1,0.5]];portConstraint=eastwest;" vertex="1" parent="fQTumMXNS3Mo2PDMPsu8-293">
          <mxGeometry y="120" width="180" height="30" as="geometry" />
        </mxCell>
        <mxCell id="fQTumMXNS3Mo2PDMPsu8-304" value="" style="shape=partialRectangle;connectable=0;fillColor=none;top=0;left=0;bottom=0;right=0;editable=1;overflow=hidden;" vertex="1" parent="fQTumMXNS3Mo2PDMPsu8-303">
          <mxGeometry width="30" height="30" as="geometry" />
        </mxCell>
        <mxCell id="fQTumMXNS3Mo2PDMPsu8-305" value="Row 3" style="shape=partialRectangle;connectable=0;fillColor=none;top=0;left=0;bottom=0;right=0;align=left;spacingLeft=6;overflow=hidden;" vertex="1" parent="fQTumMXNS3Mo2PDMPsu8-303">
          <mxGeometry x="30" width="150" height="30" as="geometry" />
        </mxCell>
        <mxCell id="fQTumMXNS3Mo2PDMPsu8-306" value="User" style="shape=table;startSize=30;container=1;collapsible=1;childLayout=tableLayout;fixedRows=1;rowLines=0;fontStyle=1;align=center;resizeLast=1;" vertex="1" parent="1">
          <mxGeometry x="523" y="720" width="180" height="160" as="geometry" />
        </mxCell>
        <mxCell id="fQTumMXNS3Mo2PDMPsu8-307" value="" style="shape=partialRectangle;collapsible=0;dropTarget=0;pointerEvents=0;fillColor=none;top=0;left=0;bottom=1;right=0;points=[[0,0.5],[1,0.5]];portConstraint=eastwest;" vertex="1" parent="fQTumMXNS3Mo2PDMPsu8-306">
          <mxGeometry y="30" width="180" height="30" as="geometry" />
        </mxCell>
        <mxCell id="fQTumMXNS3Mo2PDMPsu8-308" value="PK" style="shape=partialRectangle;connectable=0;fillColor=none;top=0;left=0;bottom=0;right=0;fontStyle=1;overflow=hidden;" vertex="1" parent="fQTumMXNS3Mo2PDMPsu8-307">
          <mxGeometry width="30" height="30" as="geometry" />
        </mxCell>
        <mxCell id="fQTumMXNS3Mo2PDMPsu8-309" value="UniqueID" style="shape=partialRectangle;connectable=0;fillColor=none;top=0;left=0;bottom=0;right=0;align=left;spacingLeft=6;fontStyle=5;overflow=hidden;" vertex="1" parent="fQTumMXNS3Mo2PDMPsu8-307">
          <mxGeometry x="30" width="150" height="30" as="geometry" />
        </mxCell>
        <mxCell id="fQTumMXNS3Mo2PDMPsu8-310" value="" style="shape=partialRectangle;collapsible=0;dropTarget=0;pointerEvents=0;fillColor=none;top=0;left=0;bottom=0;right=0;points=[[0,0.5],[1,0.5]];portConstraint=eastwest;" vertex="1" parent="fQTumMXNS3Mo2PDMPsu8-306">
          <mxGeometry y="60" width="180" height="30" as="geometry" />
        </mxCell>
        <mxCell id="fQTumMXNS3Mo2PDMPsu8-311" value="" style="shape=partialRectangle;connectable=0;fillColor=none;top=0;left=0;bottom=0;right=0;editable=1;overflow=hidden;" vertex="1" parent="fQTumMXNS3Mo2PDMPsu8-310">
          <mxGeometry width="30" height="30" as="geometry" />
        </mxCell>
        <mxCell id="fQTumMXNS3Mo2PDMPsu8-312" value="Row 1" style="shape=partialRectangle;connectable=0;fillColor=none;top=0;left=0;bottom=0;right=0;align=left;spacingLeft=6;overflow=hidden;" vertex="1" parent="fQTumMXNS3Mo2PDMPsu8-310">
          <mxGeometry x="30" width="150" height="30" as="geometry" />
        </mxCell>
        <mxCell id="fQTumMXNS3Mo2PDMPsu8-313" value="" style="shape=partialRectangle;collapsible=0;dropTarget=0;pointerEvents=0;fillColor=none;top=0;left=0;bottom=0;right=0;points=[[0,0.5],[1,0.5]];portConstraint=eastwest;" vertex="1" parent="fQTumMXNS3Mo2PDMPsu8-306">
          <mxGeometry y="90" width="180" height="30" as="geometry" />
        </mxCell>
        <mxCell id="fQTumMXNS3Mo2PDMPsu8-314" value="" style="shape=partialRectangle;connectable=0;fillColor=none;top=0;left=0;bottom=0;right=0;editable=1;overflow=hidden;" vertex="1" parent="fQTumMXNS3Mo2PDMPsu8-313">
          <mxGeometry width="30" height="30" as="geometry" />
        </mxCell>
        <mxCell id="fQTumMXNS3Mo2PDMPsu8-315" value="Row 2" style="shape=partialRectangle;connectable=0;fillColor=none;top=0;left=0;bottom=0;right=0;align=left;spacingLeft=6;overflow=hidden;" vertex="1" parent="fQTumMXNS3Mo2PDMPsu8-313">
          <mxGeometry x="30" width="150" height="30" as="geometry" />
        </mxCell>
        <mxCell id="fQTumMXNS3Mo2PDMPsu8-316" value="" style="shape=partialRectangle;collapsible=0;dropTarget=0;pointerEvents=0;fillColor=none;top=0;left=0;bottom=0;right=0;points=[[0,0.5],[1,0.5]];portConstraint=eastwest;" vertex="1" parent="fQTumMXNS3Mo2PDMPsu8-306">
          <mxGeometry y="120" width="180" height="30" as="geometry" />
        </mxCell>
        <mxCell id="fQTumMXNS3Mo2PDMPsu8-317" value="" style="shape=partialRectangle;connectable=0;fillColor=none;top=0;left=0;bottom=0;right=0;editable=1;overflow=hidden;" vertex="1" parent="fQTumMXNS3Mo2PDMPsu8-316">
          <mxGeometry width="30" height="30" as="geometry" />
        </mxCell>
        <mxCell id="fQTumMXNS3Mo2PDMPsu8-318" value="Row 3" style="shape=partialRectangle;connectable=0;fillColor=none;top=0;left=0;bottom=0;right=0;align=left;spacingLeft=6;overflow=hidden;" vertex="1" parent="fQTumMXNS3Mo2PDMPsu8-316">
          <mxGeometry x="30" width="150" height="30" as="geometry" />
        </mxCell>
        <mxCell id="fQTumMXNS3Mo2PDMPsu8-323" value="清洗服务库表设计" style="text;strokeColor=none;fillColor=none;spacingLeft=4;spacingRight=4;overflow=hidden;rotatable=0;points=[[0,0.5],[1,0.5]];portConstraint=eastwest;fontSize=12;" vertex="1" parent="1">
          <mxGeometry x="100" y="-1120" width="170" height="30" as="geometry" />
        </mxCell>
        <mxCell id="fQTumMXNS3Mo2PDMPsu8-324" value="装机服务库表设计" style="text;strokeColor=none;fillColor=none;spacingLeft=4;spacingRight=4;overflow=hidden;rotatable=0;points=[[0,0.5],[1,0.5]];portConstraint=eastwest;fontSize=12;" vertex="1" parent="1">
          <mxGeometry x="89" y="-470" width="170" height="30" as="geometry" />
        </mxCell>
        <mxCell id="fQTumMXNS3Mo2PDMPsu8-325" value="数据归档统计服务库表设计" style="text;strokeColor=none;fillColor=none;spacingLeft=4;spacingRight=4;overflow=hidden;rotatable=0;points=[[0,0.5],[1,0.5]];portConstraint=eastwest;fontSize=12;" vertex="1" parent="1">
          <mxGeometry x="89" y="180" width="170" height="30" as="geometry" />
        </mxCell>
        <mxCell id="fQTumMXNS3Mo2PDMPsu8-326" value="工单服务库表设计" style="text;strokeColor=none;fillColor=none;spacingLeft=4;spacingRight=4;overflow=hidden;rotatable=0;points=[[0,0.5],[1,0.5]];portConstraint=eastwest;fontSize=12;" vertex="1" parent="1">
          <mxGeometry x="89" y="680" width="170" height="30" as="geometry" />
        </mxCell>
        <mxCell id="fQTumMXNS3Mo2PDMPsu8-327" value="IPDB服务库表设计" style="text;strokeColor=none;fillColor=none;spacingLeft=4;spacingRight=4;overflow=hidden;rotatable=0;points=[[0,0.5],[1,0.5]];portConstraint=eastwest;fontSize=12;" vertex="1" parent="1">
          <mxGeometry x="89" y="990" width="170" height="30" as="geometry" />
        </mxCell>
        <mxCell id="fQTumMXNS3Mo2PDMPsu8-328" value="IP" style="shape=table;startSize=30;container=1;collapsible=1;childLayout=tableLayout;fixedRows=1;rowLines=0;fontStyle=1;align=center;resizeLast=1;" vertex="1" parent="1">
          <mxGeometry x="89" y="1030" width="180" height="160" as="geometry" />
        </mxCell>
        <mxCell id="fQTumMXNS3Mo2PDMPsu8-329" value="" style="shape=partialRectangle;collapsible=0;dropTarget=0;pointerEvents=0;fillColor=none;top=0;left=0;bottom=1;right=0;points=[[0,0.5],[1,0.5]];portConstraint=eastwest;" vertex="1" parent="fQTumMXNS3Mo2PDMPsu8-328">
          <mxGeometry y="30" width="180" height="30" as="geometry" />
        </mxCell>
        <mxCell id="fQTumMXNS3Mo2PDMPsu8-330" value="PK" style="shape=partialRectangle;connectable=0;fillColor=none;top=0;left=0;bottom=0;right=0;fontStyle=1;overflow=hidden;" vertex="1" parent="fQTumMXNS3Mo2PDMPsu8-329">
          <mxGeometry width="30" height="30" as="geometry" />
        </mxCell>
        <mxCell id="fQTumMXNS3Mo2PDMPsu8-331" value="id" style="shape=partialRectangle;connectable=0;fillColor=none;top=0;left=0;bottom=0;right=0;align=left;spacingLeft=6;fontStyle=5;overflow=hidden;" vertex="1" parent="fQTumMXNS3Mo2PDMPsu8-329">
          <mxGeometry x="30" width="150" height="30" as="geometry" />
        </mxCell>
        <mxCell id="fQTumMXNS3Mo2PDMPsu8-332" value="" style="shape=partialRectangle;collapsible=0;dropTarget=0;pointerEvents=0;fillColor=none;top=0;left=0;bottom=0;right=0;points=[[0,0.5],[1,0.5]];portConstraint=eastwest;" vertex="1" parent="fQTumMXNS3Mo2PDMPsu8-328">
          <mxGeometry y="60" width="180" height="30" as="geometry" />
        </mxCell>
        <mxCell id="fQTumMXNS3Mo2PDMPsu8-333" value="" style="shape=partialRectangle;connectable=0;fillColor=none;top=0;left=0;bottom=0;right=0;editable=1;overflow=hidden;" vertex="1" parent="fQTumMXNS3Mo2PDMPsu8-332">
          <mxGeometry width="30" height="30" as="geometry" />
        </mxCell>
        <mxCell id="fQTumMXNS3Mo2PDMPsu8-334" value="address" style="shape=partialRectangle;connectable=0;fillColor=none;top=0;left=0;bottom=0;right=0;align=left;spacingLeft=6;overflow=hidden;" vertex="1" parent="fQTumMXNS3Mo2PDMPsu8-332">
          <mxGeometry x="30" width="150" height="30" as="geometry" />
        </mxCell>
        <mxCell id="fQTumMXNS3Mo2PDMPsu8-335" value="" style="shape=partialRectangle;collapsible=0;dropTarget=0;pointerEvents=0;fillColor=none;top=0;left=0;bottom=0;right=0;points=[[0,0.5],[1,0.5]];portConstraint=eastwest;" vertex="1" parent="fQTumMXNS3Mo2PDMPsu8-328">
          <mxGeometry y="90" width="180" height="30" as="geometry" />
        </mxCell>
        <mxCell id="fQTumMXNS3Mo2PDMPsu8-336" value="" style="shape=partialRectangle;connectable=0;fillColor=none;top=0;left=0;bottom=0;right=0;editable=1;overflow=hidden;" vertex="1" parent="fQTumMXNS3Mo2PDMPsu8-335">
          <mxGeometry width="30" height="30" as="geometry" />
        </mxCell>
        <mxCell id="fQTumMXNS3Mo2PDMPsu8-337" value="ipseg" style="shape=partialRectangle;connectable=0;fillColor=none;top=0;left=0;bottom=0;right=0;align=left;spacingLeft=6;overflow=hidden;" vertex="1" parent="fQTumMXNS3Mo2PDMPsu8-335">
          <mxGeometry x="30" width="150" height="30" as="geometry" />
        </mxCell>
        <mxCell id="fQTumMXNS3Mo2PDMPsu8-338" value="" style="shape=partialRectangle;collapsible=0;dropTarget=0;pointerEvents=0;fillColor=none;top=0;left=0;bottom=0;right=0;points=[[0,0.5],[1,0.5]];portConstraint=eastwest;" vertex="1" parent="fQTumMXNS3Mo2PDMPsu8-328">
          <mxGeometry y="120" width="180" height="30" as="geometry" />
        </mxCell>
        <mxCell id="fQTumMXNS3Mo2PDMPsu8-339" value="" style="shape=partialRectangle;connectable=0;fillColor=none;top=0;left=0;bottom=0;right=0;editable=1;overflow=hidden;" vertex="1" parent="fQTumMXNS3Mo2PDMPsu8-338">
          <mxGeometry width="30" height="30" as="geometry" />
        </mxCell>
        <mxCell id="fQTumMXNS3Mo2PDMPsu8-340" value="Row 3" style="shape=partialRectangle;connectable=0;fillColor=none;top=0;left=0;bottom=0;right=0;align=left;spacingLeft=6;overflow=hidden;" vertex="1" parent="fQTumMXNS3Mo2PDMPsu8-338">
          <mxGeometry x="30" width="150" height="30" as="geometry" />
        </mxCell>
        <mxCell id="fQTumMXNS3Mo2PDMPsu8-341" value="IPSegment" style="shape=table;startSize=30;container=1;collapsible=1;childLayout=tableLayout;fixedRows=1;rowLines=0;fontStyle=1;align=center;resizeLast=1;" vertex="1" parent="1">
          <mxGeometry x="305" y="1030" width="180" height="160" as="geometry" />
        </mxCell>
        <mxCell id="fQTumMXNS3Mo2PDMPsu8-342" value="" style="shape=partialRectangle;collapsible=0;dropTarget=0;pointerEvents=0;fillColor=none;top=0;left=0;bottom=1;right=0;points=[[0,0.5],[1,0.5]];portConstraint=eastwest;" vertex="1" parent="fQTumMXNS3Mo2PDMPsu8-341">
          <mxGeometry y="30" width="180" height="30" as="geometry" />
        </mxCell>
        <mxCell id="fQTumMXNS3Mo2PDMPsu8-343" value="PK" style="shape=partialRectangle;connectable=0;fillColor=none;top=0;left=0;bottom=0;right=0;fontStyle=1;overflow=hidden;" vertex="1" parent="fQTumMXNS3Mo2PDMPsu8-342">
          <mxGeometry width="30" height="30" as="geometry" />
        </mxCell>
        <mxCell id="fQTumMXNS3Mo2PDMPsu8-344" value="UniqueID" style="shape=partialRectangle;connectable=0;fillColor=none;top=0;left=0;bottom=0;right=0;align=left;spacingLeft=6;fontStyle=5;overflow=hidden;" vertex="1" parent="fQTumMXNS3Mo2PDMPsu8-342">
          <mxGeometry x="30" width="150" height="30" as="geometry" />
        </mxCell>
        <mxCell id="fQTumMXNS3Mo2PDMPsu8-345" value="" style="shape=partialRectangle;collapsible=0;dropTarget=0;pointerEvents=0;fillColor=none;top=0;left=0;bottom=0;right=0;points=[[0,0.5],[1,0.5]];portConstraint=eastwest;" vertex="1" parent="fQTumMXNS3Mo2PDMPsu8-341">
          <mxGeometry y="60" width="180" height="30" as="geometry" />
        </mxCell>
        <mxCell id="fQTumMXNS3Mo2PDMPsu8-346" value="" style="shape=partialRectangle;connectable=0;fillColor=none;top=0;left=0;bottom=0;right=0;editable=1;overflow=hidden;" vertex="1" parent="fQTumMXNS3Mo2PDMPsu8-345">
          <mxGeometry width="30" height="30" as="geometry" />
        </mxCell>
        <mxCell id="fQTumMXNS3Mo2PDMPsu8-347" value="Row 1" style="shape=partialRectangle;connectable=0;fillColor=none;top=0;left=0;bottom=0;right=0;align=left;spacingLeft=6;overflow=hidden;" vertex="1" parent="fQTumMXNS3Mo2PDMPsu8-345">
          <mxGeometry x="30" width="150" height="30" as="geometry" />
        </mxCell>
        <mxCell id="fQTumMXNS3Mo2PDMPsu8-348" value="" style="shape=partialRectangle;collapsible=0;dropTarget=0;pointerEvents=0;fillColor=none;top=0;left=0;bottom=0;right=0;points=[[0,0.5],[1,0.5]];portConstraint=eastwest;" vertex="1" parent="fQTumMXNS3Mo2PDMPsu8-341">
          <mxGeometry y="90" width="180" height="30" as="geometry" />
        </mxCell>
        <mxCell id="fQTumMXNS3Mo2PDMPsu8-349" value="" style="shape=partialRectangle;connectable=0;fillColor=none;top=0;left=0;bottom=0;right=0;editable=1;overflow=hidden;" vertex="1" parent="fQTumMXNS3Mo2PDMPsu8-348">
          <mxGeometry width="30" height="30" as="geometry" />
        </mxCell>
        <mxCell id="fQTumMXNS3Mo2PDMPsu8-350" value="Row 2" style="shape=partialRectangle;connectable=0;fillColor=none;top=0;left=0;bottom=0;right=0;align=left;spacingLeft=6;overflow=hidden;" vertex="1" parent="fQTumMXNS3Mo2PDMPsu8-348">
          <mxGeometry x="30" width="150" height="30" as="geometry" />
        </mxCell>
        <mxCell id="fQTumMXNS3Mo2PDMPsu8-351" value="" style="shape=partialRectangle;collapsible=0;dropTarget=0;pointerEvents=0;fillColor=none;top=0;left=0;bottom=0;right=0;points=[[0,0.5],[1,0.5]];portConstraint=eastwest;" vertex="1" parent="fQTumMXNS3Mo2PDMPsu8-341">
          <mxGeometry y="120" width="180" height="30" as="geometry" />
        </mxCell>
        <mxCell id="fQTumMXNS3Mo2PDMPsu8-352" value="" style="shape=partialRectangle;connectable=0;fillColor=none;top=0;left=0;bottom=0;right=0;editable=1;overflow=hidden;" vertex="1" parent="fQTumMXNS3Mo2PDMPsu8-351">
          <mxGeometry width="30" height="30" as="geometry" />
        </mxCell>
        <mxCell id="fQTumMXNS3Mo2PDMPsu8-353" value="Row 3" style="shape=partialRectangle;connectable=0;fillColor=none;top=0;left=0;bottom=0;right=0;align=left;spacingLeft=6;overflow=hidden;" vertex="1" parent="fQTumMXNS3Mo2PDMPsu8-351">
          <mxGeometry x="30" width="150" height="30" as="geometry" />
        </mxCell>
      </root>
    </mxGraphModel>
  </diagram>
</mxfile>
